<svg width="100" height="100" viewBox="0 0 100 100" fill="none" xmlns="http://www.w3.org/2000/svg">
<path d="M49.5208 20.5C55.9553 20.5 61.732 21.1272 65.8577 22.1172C67.9322 22.615 69.5058 23.1857 70.5247 23.7637C71.3944 24.2571 71.5742 24.584 71.6106 24.6631C71.5742 24.7421 71.3947 25.0689 70.5247 25.5625C69.5058 26.1405 67.9322 26.7112 65.8577 27.209C61.732 28.199 55.9553 28.8262 49.5208 28.8262C43.0861 28.8262 37.3086 28.199 33.1829 27.209C31.1083 26.7111 29.5346 26.1405 28.5159 25.5625C27.644 25.0678 27.4647 24.7411 27.429 24.6631C27.4648 24.585 27.6442 24.2582 28.5159 23.7637C29.5346 23.1857 31.1083 22.615 33.1829 22.1172C37.3086 21.1271 43.0861 20.5 49.5208 20.5Z" stroke="black" stroke-width="3"/>
<path d="M29.068 25.9216C11.813 45.4283 7.04181 60.5298 7.04181 77.5193C7.04181 85.6995 13.335 83.8117 47.161 83.8117C84.9201 83.8117 92 85.0702 92 78.1486C92 58.0129 85.5891 44.293 69.9738 26.5508" stroke="black" stroke-width="3"/>
<path d="M33.2633 28.2288C23.546 43.8354 18.6263 57.0369 16.4815 70.178" stroke="black" stroke-width="3" stroke-linecap="round"/>
<path d="M82.5597 70.178C80.2071 55.6744 74.8826 43.1423 65.778 28.2288" stroke="black" stroke-width="3" stroke-linecap="round"/>
<path d="M69.5399 56.3632C70.6199 47.2513 68.9505 37.9441 64.0335 28.2288" stroke="black" stroke-width="3" stroke-linecap="round"/>
<path d="M34.929 28.2288C30.5875 37.7598 28.2099 47.0842 28.1379 56.3632" stroke="black" stroke-width="3" stroke-linecap="round"/>
<rect x="14.3837" y="70.178" width="70.2736" height="9.22881" rx="1" stroke="black" stroke-width="3"/>
<path d="M35.6837 56.8359H26.9883L14.3404 70.418" stroke="black" stroke-width="3" stroke-linecap="round"/>
<path d="M62.8479 56.8359H70.9436L84.1912 70.418" stroke="black" stroke-width="3" stroke-linecap="round"/>
<rect x="35.6837" y="49.0746" width="26.1941" height="10.6717" rx="2" stroke="black" stroke-width="3"/>
<path d="M81.949 17.6749L78.1608 21.4632" stroke="black" stroke-width="3" stroke-linecap="round"/>
<path d="M91.5795 8.14459C91.5599 8.42992 91.4457 8.87413 91.1687 9.46421C90.6185 10.6356 89.5619 12.092 88.0967 13.4974C86.6317 14.9026 85.1331 15.8971 83.9399 16.398C83.3383 16.6505 82.8895 16.7465 82.6036 16.7541C82.5686 16.7551 82.5387 16.7513 82.5132 16.7502C82.5131 16.7248 82.5113 16.695 82.5137 16.6604C82.5332 16.3751 82.6479 15.9306 82.9252 15.3401C83.4753 14.1688 84.5314 12.7129 85.9964 11.3076C87.4615 9.9023 88.9607 8.90722 90.154 8.40636C90.7551 8.15407 91.2037 8.05856 91.4896 8.05085C91.5243 8.04993 91.5546 8.05234 91.58 8.05343C91.58 8.07903 91.5819 8.10961 91.5795 8.14459Z" stroke="black" stroke-width="3"/>
<path d="M87.6869 1.7088C87.3298 3.78827 87.2003 5.62216 85.7927 7.39122L86.5504 8.90654" stroke="black" stroke-width="3" stroke-linecap="round"/>
<path d="M83.8432 24.8709C84.2466 22.7999 84.4171 20.9694 85.8637 19.2322L85.1401 17.7003" stroke="black" stroke-width="3" stroke-linecap="round"/>
<path d="M74.3191 16.989C76.3063 16.2801 78.0907 15.8374 79.5917 14.147L81.2146 14.6331" stroke="black" stroke-width="3" stroke-linecap="round"/>
<path d="M97.7511 13.1325C95.6412 13.1504 93.8104 12.9833 91.8379 14.0879L90.4642 13.0964" stroke="black" stroke-width="3" stroke-linecap="round"/>
<mask id="path-17-inside-1_2_54" fill="white">
<ellipse cx="92.928" cy="21.1853" rx="2.27297" ry="6.81891" transform="rotate(137.457 92.928 21.1853)"/>
</mask>
<path d="M91.2533 22.7222L93.4636 20.6938C92.3478 19.4779 91.5893 18.3151 91.222 17.4942C91.0315 17.0687 91.0165 16.8904 91.0194 16.9294C91.0217 16.96 91.0328 17.1356 90.9586 17.3957C90.8784 17.6768 90.6988 18.0478 90.3458 18.3717L88.3174 16.1614L86.2889 13.9511C85.0902 15.0512 84.9707 16.5073 85.0363 17.3795C85.1051 18.2946 85.4044 19.1833 85.7453 19.945C86.4405 21.4986 87.6125 23.1919 89.043 24.7506L91.2533 22.7222ZM88.3174 16.1614L90.3458 18.3717C89.9929 18.6956 89.6079 18.8429 89.3209 18.8986C89.0554 18.9502 88.8814 18.9242 88.8511 18.9193C88.8125 18.913 88.9888 18.9433 89.3965 19.1695C90.183 19.6058 91.2765 20.4611 92.3923 21.6769L94.6026 19.6485L96.8129 17.62C95.3824 16.0613 93.7957 14.7486 92.3074 13.9228C91.5776 13.518 90.7179 13.1437 89.812 12.9967C88.9486 12.8566 87.4877 12.851 86.2889 13.9511L88.3174 16.1614ZM94.6026 19.6485L92.3923 21.6769C93.5081 22.8928 94.2666 24.0556 94.634 24.8765C94.8244 25.302 94.8395 25.4803 94.8365 25.4413C94.8342 25.4107 94.8232 25.2351 94.8973 24.975C94.9775 24.6938 95.1571 24.3229 95.5101 23.999L97.5385 26.2093L99.567 28.4196C100.766 27.3195 100.885 25.8634 100.82 24.9912C100.751 24.0761 100.451 23.1874 100.111 22.4257C99.4154 20.8721 98.2434 19.1788 96.8129 17.62L94.6026 19.6485ZM97.5385 26.2093L95.5101 23.999C95.8631 23.6751 96.248 23.5278 96.5351 23.472C96.8005 23.4205 96.9745 23.4465 97.0048 23.4514C97.0434 23.4577 96.8671 23.4274 96.4594 23.2012C95.673 22.7649 94.5794 21.9096 93.4636 20.6938L91.2533 22.7222L89.043 24.7506C90.4735 26.3094 92.0602 27.6221 93.5486 28.4478C94.2783 28.8527 95.138 29.227 96.0439 29.374C96.9073 29.5141 98.3683 29.5197 99.567 28.4196L97.5385 26.2093Z" fill="black" mask="url(#path-17-inside-1_2_54)"/>
<mask id="path-19-inside-2_2_54" fill="white">
<ellipse cx="78.5997" cy="6.5192" rx="2.27297" ry="6.81891" transform="rotate(136.657 78.5997 6.5192)"/>
</mask>
<path d="M76.9466 8.07928L79.1284 6.0202C77.9957 4.82002 77.2211 3.66794 76.8423 2.85223C76.646 2.42938 76.6284 2.25136 76.6319 2.29028C76.6346 2.32088 76.6481 2.49625 76.5776 2.75735C76.5014 3.03963 76.3269 3.41304 75.9785 3.74185L73.9194 1.56006L71.8604 -0.621729C70.6771 0.494995 70.5779 1.95257 70.6557 2.82378C70.7373 3.73787 71.0489 4.62227 71.4004 5.37917C72.1172 6.92294 73.3127 8.59968 74.7648 10.1384L76.9466 8.07928ZM73.9194 1.56006L75.9785 3.74185C75.6301 4.07066 75.2472 4.22326 74.961 4.28304C74.6963 4.33833 74.522 4.31471 74.4916 4.31022C74.4529 4.3045 74.6297 4.33231 75.0404 4.55278C75.8329 4.97808 76.9382 5.81802 78.0709 7.01821L80.2527 4.95913L82.4345 2.90006C80.9824 1.36138 79.3776 0.0709846 77.8778 -0.733929C77.1425 -1.12857 76.2776 -1.49085 75.3698 -1.62517C74.5045 -1.75319 73.0436 -1.73845 71.8604 -0.621729L73.9194 1.56006ZM80.2527 4.95913L78.0709 7.01821C79.2036 8.21839 79.9782 9.37046 80.357 10.1862C80.5533 10.609 80.5709 10.787 80.5674 10.7481C80.5647 10.7175 80.5512 10.5422 80.6217 10.2811C80.6979 9.99878 80.8724 9.62537 81.2208 9.29656L83.2799 11.4783L85.339 13.6601C86.5222 12.5434 86.6214 11.0858 86.5436 10.2146C86.462 9.30054 86.1504 8.41614 85.7989 7.65924C85.0821 6.11546 83.8866 4.43873 82.4345 2.90006L80.2527 4.95913ZM83.2799 11.4783L81.2208 9.29656C81.5692 8.96774 81.9521 8.81515 82.2383 8.75537C82.503 8.70008 82.6773 8.72369 82.7077 8.72819C82.7464 8.73391 82.5697 8.7061 82.1589 8.48563C81.3664 8.06032 80.2611 7.22038 79.1284 6.0202L76.9466 8.07928L74.7648 10.1384C76.217 11.677 77.8218 12.9674 79.3215 13.7723C80.0568 14.167 80.9217 14.5293 81.8296 14.6636C82.6948 14.7916 84.1557 14.7769 85.339 13.6601L83.2799 11.4783Z" fill="black" mask="url(#path-19-inside-2_2_54)"/>
<path d="M5.28606 41.579C6.49448 35.1625 9.06971 29.0813 12.8368 23.7484C16.604 18.4154 21.4747 13.9557 27.1183 10.6722C32.7618 7.38865 39.046 5.3582 45.5438 4.71874C52.0417 4.07928 58.6011 4.8458 64.7765 6.96623" stroke="black" stroke-width="3" stroke-linecap="round"/>
<path d="M68.959 91.3619C63.3307 93.9417 57.2351 95.3457 51.0454 95.488C44.8556 95.6302 38.702 94.5077 32.9611 92.1892" stroke="black" stroke-width="3" stroke-linecap="round"/>
<path d="M93.9496 38.2237C94.9788 42.0645 95.5 46.0237 95.5 50" stroke="black" stroke-width="3" stroke-linecap="round"/>
</svg>
