<svg width="100" height="100" viewBox="0 0 100 100" fill="none" xmlns="http://www.w3.org/2000/svg">
<path d="M44.0366 54.4957V42.1457H37.0366V55.1457" stroke="black" stroke-width="3" stroke-linecap="round" stroke-linejoin="round"/>
<path d="M56.0366 56.1457V38.1457H49.0366V54.7893" stroke="black" stroke-width="3" stroke-linecap="round" stroke-linejoin="round"/>
<path d="M68 60V30H61V57.5" stroke="black" stroke-width="3" stroke-linecap="round" stroke-linejoin="round"/>
<path d="M80.0366 57.0089V21.1457H73.0366V58.1457" stroke="black" stroke-width="3" stroke-linecap="round" stroke-linejoin="round"/>
<path d="M25.6097 61.3713C35.9756 52.8347 48.7805 54.6639 54.2683 55.8834C58.2548 56.7693 64.6341 57.7126 62.8049 63.2005C61.3428 67.5868 48.7805 63.2006 48.7805 63.2006" stroke="black" stroke-width="3" stroke-linecap="round"/>
<path d="M32.9269 76.6151C40.8537 72.9566 44.5122 73.3631 52.4391 76.0053C58.1047 77.8939 66.271 74.4101 71.9513 71.7371C82.3171 66.859 88.4985 65.6395 86.5854 60.7614C84.3373 55.029 79.419 57.2723 71.9513 59.5419C68.8524 60.4837 63.5 62 63.5 62" stroke="black" stroke-width="3" stroke-linecap="round"/>
<rect x="15.673" y="61.8892" width="9.19512" height="25.0488" transform="rotate(-25.8029 15.673 61.8892)" stroke="black" stroke-width="3" stroke-linecap="round"/>
<rect x="2.00336" y="64.4345" width="12.8537" height="33.5854" transform="rotate(-25.8029 2.00336 64.4345)" stroke="black" stroke-width="3" stroke-linecap="round"/>
<path d="M23.1708 34.0976C28.6586 34.0976 60.0905 28.8919 68.2927 7.87805" stroke="black" stroke-width="3" stroke-linecap="round"/>
<path d="M61.5853 9.09756L68.2926 7.87805L71.3414 13.9756" stroke="black" stroke-width="3" stroke-linecap="round"/>
<path d="M7.52126 51.3908C7.16408 39.7114 11.314 28.3422 19.111 19.6391C26.908 10.936 37.7545 5.5662 49.4029 4.64241" stroke="black" stroke-width="3" stroke-linecap="round"/>
<path d="M92.9065 28.1432C97.5611 36.6417 99.3811 46.4042 98.1015 56.009C96.8218 65.6138 92.5092 74.5593 85.7919 81.5427C79.0746 88.526 70.3033 93.1826 60.7554 94.8342C51.2075 96.4858 41.3817 95.0461 32.7089 90.725" stroke="black" stroke-width="3" stroke-linecap="round"/>
</svg>
