<svg width="100" height="100" viewBox="0 0 100 100" fill="none" xmlns="http://www.w3.org/2000/svg">
<path d="M74.812 10.8619C65.4944 5.14697 54.4613 2.8971 43.65 4.50731C32.8386 6.11753 22.9401 11.4849 15.6923 19.667C8.44447 27.8492 4.31072 38.323 4.01681 49.2497C3.7229 60.1763 7.28762 70.8573 14.0851 79.4172C20.8826 87.9771 30.4783 93.8689 41.1874 96.0579C51.8966 98.247 63.0346 96.5935 72.6459 91.3877C82.2573 86.182 89.7275 77.7567 93.7451 67.5912C97.7627 57.4257 98.0708 46.1698 94.6152 35.7998" stroke="black" stroke-width="3" stroke-linecap="round"/>
<path d="M34.3732 10C34.3732 10 39.1584 21.3783 34.3732 24.1127C31.6389 25.6752 28.0695 21.5014 26.3089 24.1127C24.5916 26.6597 28.5338 28.4683 28.997 31.505C29.8042 36.7967 31.6079 44.1887 26.3089 44.9457C22.5619 45.481 21.8662 40.6692 18.2445 39.5694C14.6032 38.4637 8.5 39.5694 8.5 39.5694M90.5 61.5C90.5 61.5 81.0417 51.0194 73.5 52C65.9682 52.9793 59.2498 57.909 59.5 65.5C59.7142 71.999 71.0096 71.5174 70.5 78C69.8418 86.3727 56.1385 78.7682 50 84.5C47.3453 86.9788 44.5 92 44.5 92" stroke="black" stroke-width="3" stroke-linecap="round" stroke-linejoin="round"/>
<path d="M79.6235 32C79.6235 32 90.9002 28.6164 95.3176 23.1363C97 21.0493 97.7794 18.7794 96 17C94.2206 15.2205 89.5 19.5 83.7176 18.3636C79.9628 17.6257 75.3588 23.4772 75.3588 23.4772M79.6235 32L78.2588 45.6363L73.4824 47L70.0706 36.0909M79.6235 32V26.5454L69.3882 32L70.0706 36.0909M70.0706 36.0909L50.2824 46.3182L38 38.8182L41.4118 36.7727L50.2824 38.8182L67 28.5909M67 28.5909L59.1529 21.7727L62.5647 18.3636L75.3588 23.4772M67 28.5909L75.3588 23.4772" stroke="black" stroke-width="3" stroke-linecap="round" stroke-linejoin="round"/>
<path d="M25.1297 83C24.608 69.6097 24.9084 62.1467 41 50" stroke="black" stroke-width="3" stroke-linecap="round" stroke-linejoin="round" stroke-dasharray="6 6"/>
</svg>
