<svg width="100" height="100" viewBox="0 0 100 100" fill="none" xmlns="http://www.w3.org/2000/svg">
<path d="M44.0366 50.4957V38.1457H37.0366V51.1457" stroke="black" stroke-width="3" stroke-linecap="round" stroke-linejoin="round"/>
<path d="M56.0366 52.1457V34.1457H49.0366V51.1727" stroke="black" stroke-width="3" stroke-linecap="round" stroke-linejoin="round"/>
<path d="M68.0366 56.1457V27.1457H61.0366V54.2124" stroke="black" stroke-width="3" stroke-linecap="round" stroke-linejoin="round"/>
<path d="M80.0366 53.0396V18.1457H73.0366V54.1457" stroke="black" stroke-width="3" stroke-linecap="round" stroke-linejoin="round"/>
<path d="M25.6097 58.3713C35.9756 49.8347 48.7805 51.6639 54.2683 52.8834C58.2548 53.7693 64.6341 54.7126 62.8049 60.2005C61.3428 64.5868 48.7805 60.2006 48.7805 60.2006" stroke="black" stroke-width="3" stroke-linecap="round"/>
<path d="M32.9269 73.6151C40.8537 69.9566 44.5122 70.3631 52.4391 73.0053C58.1047 74.8939 66.271 71.4101 71.9513 68.7371C82.3171 63.859 88.4985 62.6395 86.5854 57.7614C84.3373 52.029 79.419 54.2723 71.9513 56.5419C68.8524 57.4837 62.8049 59.1463 62.8049 59.1463" stroke="black" stroke-width="3" stroke-linecap="round"/>
<rect x="15.673" y="58.8892" width="9.19512" height="25.0488" transform="rotate(-25.8029 15.673 58.8892)" stroke="black" stroke-width="3" stroke-linecap="round"/>
<rect x="2.00336" y="61.4345" width="12.8537" height="33.5854" transform="rotate(-25.8029 2.00336 61.4345)" stroke="black" stroke-width="3" stroke-linecap="round"/>
<path d="M23.1708 31.0976C28.6586 31.0976 60.0905 25.8919 68.2927 4.87805" stroke="black" stroke-width="3" stroke-linecap="round"/>
<path d="M61.5853 6.09756L68.2926 4.87805L71.3414 10.9756" stroke="black" stroke-width="3" stroke-linecap="round"/>
<path d="M7.52126 48.3908C7.16408 36.7114 11.314 25.3422 19.111 16.6391C26.908 7.93599 37.7545 2.5662 49.4029 1.64241" stroke="black" stroke-width="3" stroke-linecap="round"/>
<path d="M92.9065 25.1432C97.5611 33.6417 99.3811 43.4042 98.1015 53.009C96.8218 62.6138 92.5092 71.5593 85.7919 78.5427C79.0746 85.526 70.3033 90.1826 60.7554 91.8342C51.2075 93.4858 41.3817 92.0461 32.7089 87.725" stroke="black" stroke-width="3" stroke-linecap="round"/>
</svg>
