<svg width="100" height="100" viewBox="0 0 100 100" fill="none" xmlns="http://www.w3.org/2000/svg">
<path d="M80.2969 69.4809C70.7216 61.5952 58.8933 63.285 53.824 64.4114C50.1415 65.2298 44.2487 66.1011 45.9384 71.1705C47.289 75.2223 58.8933 71.1706 58.8933 71.1706" stroke="black" stroke-width="3" stroke-linecap="round"/>
<path d="M73.538 83.5621C66.2157 80.1826 62.8361 80.5581 55.5138 82.9989C50.2802 84.7434 42.7368 81.5253 37.4897 79.0561C27.9144 74.5501 22.2044 73.4236 23.9716 68.9175C26.0483 63.6223 30.5915 65.6945 37.4897 67.791C40.3523 68.661 45.2192 69.9079 45.2192 69.9079" stroke="black" stroke-width="3" stroke-linecap="round"/>
<rect x="2.00336" y="-0.697529" width="9.70195" height="28.9097" transform="matrix(-0.900296 -0.435277 -0.435277 0.900296 93.5034 69.476)" stroke="black" stroke-width="3" stroke-linecap="round" stroke-linejoin="round"/>
<path d="M26.1195 40.2109C25.3088 38.7343 21.8061 40.2109 21.8061 40.2109L19.6494 19.1829C26.4895 18.8926 30.2574 18.3249 36.9031 17.0262C42.3451 15.9628 45.5163 17.8206 50.9217 19.7221C55.5595 22.5004 57.4739 24.1671 60.0878 27.2706H42.2949C40.2339 27.7946 39.4497 28.3349 39.0598 29.9665C38.2234 31.7941 38.9613 32.716 41.2165 34.2799L50.9217 40.2109C52.5767 41.8265 53.4106 42.7581 52.5393 45.0635C51.2879 47.5637 50.2966 47.9982 48.2258 47.7594C44.6313 45.9621 37.2124 43.3545 35.2855 43.446C31.1106 43.6441 26.6382 41.1556 26.1195 40.2109Z" stroke="black" stroke-width="3" stroke-linecap="round" stroke-linejoin="round"/>
<rect x="10.3439" y="16.6989" width="8.8233" height="28.8806" rx="2.5" transform="rotate(-6.32242 10.3439 16.6989)" stroke="black" stroke-width="3" stroke-linejoin="round"/>
<path d="M34.4357 50.0509V53.5365C34.4357 54.6411 35.3312 55.5365 36.4357 55.5365H86.3536C87.4582 55.5365 88.3536 54.6411 88.3536 53.5365V29.4992C88.3536 28.3946 87.4582 27.4992 86.3536 27.4992H42.4009" stroke="black" stroke-width="3" stroke-linecap="round" stroke-linejoin="round"/>
<path d="M62.088 36.958V36.1262" stroke="black" stroke-width="3" stroke-linecap="round"/>
<path d="M62.088 45.2767V45.8313" stroke="black" stroke-width="3" stroke-linecap="round"/>
<path d="M64.6297 38.9426C64.6297 37.0359 59.546 37.0359 59.546 38.9426C59.546 40.468 62.5115 41.1174 62.5115 41.1174C62.5115 41.1174 64.6297 41.8472 64.6297 42.5828C64.6297 45.8314 59.546 45.0344 59.546 43.8903" stroke="black" stroke-width="3" stroke-linecap="round"/>
<path d="M54.361 36.6065C55.2745 35.0242 56.6608 33.7678 58.325 33.0138C59.9892 32.2597 61.8478 32.0459 63.6398 32.4023C65.4318 32.7588 67.0671 33.6676 68.3161 35.0011C69.5651 36.3346 70.365 38.0259 70.6034 39.8373C70.8419 41.6488 70.507 43.4894 69.6457 45.1008C68.7844 46.7121 67.4401 48.0132 65.8014 48.8213C64.1627 49.6294 62.3121 49.9039 60.5094 49.6063C58.7067 49.3087 57.0426 48.4539 55.7506 47.1619" stroke="black" stroke-width="3" stroke-linecap="round" stroke-linejoin="round"/>
<path d="M72.7174 32.3519H80.8051C80.8051 34.5086 81.8834 35.5869 84.0401 35.5869V46.9097C81.8834 46.9097 80.8051 49.0664 80.8051 51.2231H70.0215" stroke="black" stroke-width="3" stroke-linecap="round"/>
<path d="M61.7763 93.9496C55.0349 95.756 47.9684 95.9873 41.1234 94.6257C34.2784 93.2642 27.8383 90.3462 22.3014 86.0976C16.7644 81.8489 12.2791 76.3835 9.19229 70.1241C6.1055 63.8647 4.5 56.9791 4.5 50" stroke="black" stroke-width="3" stroke-linecap="round"/>
<path d="M38.2237 6.05038C45.9385 3.98321 54.0615 3.98321 61.7763 6.05037C69.491 8.11754 76.5257 12.179 82.1734 17.8266" stroke="black" stroke-width="3" stroke-linecap="round"/>
</svg>
