<svg width="100" height="100" viewBox="0 0 100 100" fill="none" xmlns="http://www.w3.org/2000/svg">
<g clip-path="url(#clip0_6_277)">
<path d="M95.1498 61.3511C97.2304 50.6203 95.4643 39.4996 90.1615 29.9414C84.8588 20.3832 76.3583 12.9986 66.1527 9.08413C55.9471 5.16964 44.6887 4.97549 34.3541 8.53578C24.0196 12.0961 15.2696 19.1832 9.64044 28.5529C4.01127 37.9225 1.86275 48.9757 3.57212 59.7718C5.28149 70.568 10.7395 80.4168 18.9878 87.5892C27.2361 94.7616 37.7475 98.7991 48.6763 98.9927C59.6052 99.1863 70.253 95.5237 78.7502 88.648" stroke="black" stroke-width="3" stroke-linecap="round"/>
<path d="M48.6566 66.7796C48.8517 66.5846 49.1683 66.5847 49.3636 66.7796L58.6751 76.0921C58.8704 76.2874 58.8704 76.6039 58.6751 76.7991L49.3636 86.1107C49.1683 86.3057 48.8518 86.3059 48.6566 86.1107L39.345 76.7991C39.1498 76.6039 39.1499 76.2874 39.345 76.0921L48.6566 66.7796ZM89.2122 66.4661C89.4075 66.2709 89.724 66.2709 89.9193 66.4661L99.2318 75.7776C99.4266 75.9729 99.4267 76.2895 99.2318 76.4847L89.9193 85.7962C89.724 85.9914 89.4074 85.9914 89.2122 85.7962L79.9007 76.4847C79.7055 76.2895 79.7055 75.9729 79.9007 75.7776L89.2122 66.4661ZM35.222 53.345C35.4173 53.1499 35.7338 53.1498 35.929 53.345L45.2405 62.6566C45.4358 62.8518 45.4357 63.1683 45.2405 63.3636L35.929 72.6751C35.7338 72.8704 35.4172 72.8704 35.222 72.6751L25.9095 63.3636C25.7146 63.1683 25.7145 62.8517 25.9095 62.6566L35.222 53.345ZM62.0921 53.345C62.2874 53.1499 62.6039 53.1498 62.7991 53.345L72.1107 62.6566C72.3059 62.8518 72.3057 63.1683 72.1107 63.3636L62.7991 72.6751C62.6039 72.8704 62.2874 72.8704 62.0921 72.6751L52.7796 63.3636C52.5847 63.1683 52.5846 62.8517 52.7796 62.6566L62.0921 53.345ZM21.7864 39.9095C21.9816 39.7145 22.2982 39.7146 22.4935 39.9095L31.805 49.222C32.0003 49.4172 32.0003 49.7338 31.805 49.929L22.4935 59.2405C22.2982 59.4357 21.9817 59.4358 21.7864 59.2405L12.4749 49.929C12.2797 49.7338 12.2798 49.4173 12.4749 49.222L21.7864 39.9095ZM48.6566 39.9095C48.8517 39.7145 49.1683 39.7146 49.3636 39.9095L58.6751 49.222C58.8704 49.4172 58.8704 49.7338 58.6751 49.929L49.3636 59.2405C49.1683 59.4357 48.8518 59.4358 48.6566 59.2405L39.345 49.929C39.1498 49.7338 39.1499 49.4173 39.345 49.222L48.6566 39.9095ZM75.5267 39.9095C75.7218 39.7145 76.0385 39.7146 76.2337 39.9095L85.5452 49.222C85.7405 49.4172 85.7405 49.7338 85.5452 49.929L76.2337 59.2405C76.0384 59.4357 75.7219 59.4358 75.5267 59.2405L66.2151 49.929C66.0199 49.7338 66.02 49.4173 66.2151 49.222L75.5267 39.9095ZM35.222 26.4749C35.4173 26.2798 35.7338 26.2797 35.929 26.4749L45.2405 35.7864C45.4358 35.9817 45.4357 36.2982 45.2405 36.4935L35.929 45.805C35.7338 46.0003 35.4172 46.0003 35.222 45.805L25.9095 36.4935C25.7146 36.2982 25.7145 35.9816 25.9095 35.7864L35.222 26.4749ZM62.0921 26.4749C62.2874 26.2798 62.6039 26.2797 62.7991 26.4749L72.1107 35.7864C72.3059 35.9816 72.3057 36.2982 72.1107 36.4935L62.7991 45.805C62.6039 46.0003 62.2874 46.0003 62.0921 45.805L52.7796 36.4935C52.5847 36.2982 52.5846 35.9816 52.7796 35.7864L62.0921 26.4749Z" stroke="black" stroke-width="3" stroke-linejoin="round"/>
</g>
<defs>
<clipPath id="clip0_6_277">
<rect width="100" height="100" fill="white"/>
</clipPath>
</defs>
</svg>
