<svg width="5468" height="1192" viewBox="0 0 5468 1192" fill="none" xmlns="http://www.w3.org/2000/svg">
<path fill-rule="evenodd" clip-rule="evenodd" d="M445.53 96C600.184 96.0008 760.041 219 760.041 413.622C760.041 517 705.438 603 690.034 618.274C657.031 651.001 630.253 711.001 630.253 799.438C630.253 809.501 623.858 824.418 622.214 827.575C609.957 851.112 588.874 865.544 565.597 879.02C566.435 879.264 567.257 879.513 568.062 879.767C578.771 883.137 588.799 890.439 596.668 897.405C611.936 910.923 622.389 927.704 622.389 946.492C622.389 955.486 620.169 965.892 616.299 975.197C612.114 985.26 606.058 991.781 598.309 997.306C591.729 1002 586.152 1006.71 577.667 1009.7C577.63 1009.72 577.593 1009.73 577.556 1009.74C577.592 1009.77 577.629 1009.79 577.665 1009.82C593.266 1021.19 607.084 1034.8 618.67 1053.32C626.911 1066.5 623.842 1082.58 610.669 1090.82C597.907 1098.8 580.043 1096.67 571.52 1084.47L570.723 1083.26L569.164 1080.82C552.9 1056.03 529.798 1043.52 496.856 1036.12C466.072 1029.2 426.272 1026.82 372.033 1027.46C362.182 1027.65 352.02 1027.81 341.553 1027.97C326.049 1028.2 313.281 1014.84 313.004 999.336C312.995 998.846 312.999 998.359 313.017 997.875C313.481 982.979 326.065 970.88 341.116 970.564C387.503 969.593 404.398 969.723 450.786 970.555C459.98 970.72 564.197 968.703 564.198 948.454C564.198 936.394 538.46 929.235 528.172 926.904C495.852 919.582 445.283 916.772 369.759 916.348C354.773 916.927 342.896 917.081 336.033 917.091C320.641 917.113 308.086 904.758 307.857 889.365C307.63 873.972 320.585 859.232 335.971 858.798C408.322 858.798 458.879 853.089 499.515 843.001C554.02 829.47 572.938 808.002 573.521 796.501C577.909 710.001 592.188 675.309 608.025 638.501C626.924 594.58 703.769 543.501 703.769 410.622C703.769 264.5 577.522 151.282 445.53 151.282C310.496 151.282 182.166 258.505 184.269 417.315C185.482 509 231.2 559.6 257.857 594.466C268.459 608.333 278.566 630.715 285.715 648.282C293.081 666.384 298.165 684.106 299.934 690.961C304.085 707.052 309.496 714.001 313.996 719.001C317.462 722.852 323.085 726.242 325.497 727.501C329.036 729.348 340.999 732.164 348.04 732.164H436.999C457.599 732.164 476.475 719.001 468.614 690.961C461.103 664.169 444.419 645.867 433.802 604.708C433.55 603.714 433.303 602.716 433.062 601.715L430.873 601.799C427.914 601.905 425.856 601.96 425.118 601.945C310.162 599.672 194.708 482.581 252.294 331.63C344.942 325.454 411.549 365.346 456.016 424.025C459.364 418.679 462.937 413.531 466.712 408.691C473.441 399.918 480.83 392.118 488.762 385.944C567.609 324.576 605.701 331.63 640.266 331.63C686.228 448.666 623.603 572.372 493.738 597.695C494.143 599.181 494.157 600.587 493.837 601.908C507.445 647.777 528.701 666.452 528.701 693.841C528.701 727.501 521.337 739.659 508.95 752.387C488.918 772.97 459.116 788.444 429.944 788.445C399.917 788.446 353.077 788.445 352.958 788.445C347.562 788.445 330.497 787.001 324.889 786.138C321.334 785.59 308.027 781.488 304.671 779.736C297.938 776.222 290.522 773.199 283.234 766.621C268.555 753.371 253.704 737.152 246.447 709.023C245.623 705.827 239.654 685.846 232.596 668.502C221.404 641.001 208.985 622.001 192.983 603.001C174.034 580.501 128 509.001 128 417.929C128 228.989 274.702 95.9993 445.53 96ZM598.667 387.645C598.262 387.763 597.872 387.88 597.5 388C506.497 417.307 480.058 481.755 483.902 546.783C528.838 534.799 606.175 494.602 598.667 387.645ZM296.029 387.354C290.357 472.431 344.239 534.422 425.826 546.671C425.541 536.236 425.861 525.749 426.823 515.347C426.158 511.297 424.531 504.939 423.756 502.276C401.81 426.933 367.098 404.952 296.029 387.354Z" fill="#6CBD43"/>
<path d="M1012.77 242.804L982.431 238.364V219.864H1170.76L1175.94 277.214H1154.85L1144.12 241.324L1052.36 239.104V343.444L1114.15 342.334L1119.33 311.624H1139.68V396.724H1119.33L1114.15 364.904L1052.36 363.794V474.054L1156.7 470.354L1176.31 423.734L1198.14 430.394L1187.41 494.774H982.061V476.644L1012.77 472.944V242.804ZM1252.3 313.844H1217.52V296.824L1252.3 289.794V272.404C1252.3 257.111 1256.24 243.051 1264.14 230.224C1272.28 217.398 1282.76 207.284 1295.59 199.884C1308.66 192.238 1322.47 188.414 1337.03 188.414C1345.41 188.414 1352.69 189.524 1358.86 191.744V228.744C1356.64 226.771 1352.2 224.921 1345.54 223.194C1339.12 221.221 1331.97 220.234 1324.08 220.234C1312.48 220.234 1303.97 223.318 1298.55 229.484C1293.37 235.404 1290.78 245.764 1290.78 260.564V289.794H1341.84V313.844H1290.78V473.684L1331.85 476.644V494.774H1220.85V476.644L1252.3 473.314V313.844ZM1400.3 313.844H1365.52V296.824L1400.3 289.794V272.404C1400.3 257.111 1404.24 243.051 1412.14 230.224C1420.28 217.398 1430.76 207.284 1443.59 199.884C1456.66 192.238 1470.47 188.414 1485.03 188.414C1493.41 188.414 1500.69 189.524 1506.86 191.744V228.744C1504.64 226.771 1500.2 224.921 1493.54 223.194C1487.12 221.221 1479.97 220.234 1472.08 220.234C1460.48 220.234 1451.97 223.318 1446.55 229.484C1441.37 235.404 1438.78 245.764 1438.78 260.564V289.794H1489.84V313.844H1438.78V473.684L1479.85 476.644V494.774H1368.85V476.644L1400.3 473.314V313.844ZM1609.64 498.844C1579.8 498.844 1556.98 489.101 1541.19 469.614C1525.65 450.128 1517.88 424.104 1517.88 391.544C1517.88 370.084 1521.95 351.214 1530.09 334.934C1538.23 318.654 1549.58 306.074 1564.13 297.194C1578.93 288.314 1595.71 283.874 1614.45 283.874C1637.39 283.874 1655.15 290.288 1667.73 303.114C1680.56 315.694 1687.34 333.824 1688.08 357.504C1688.08 372.551 1687.22 384.021 1685.49 391.914H1558.21C1558.71 416.334 1564.38 436.068 1575.23 451.114C1586.09 465.914 1601.5 473.314 1621.48 473.314C1631.35 473.314 1641.59 471.588 1652.19 468.134C1663.05 464.434 1671.43 460.118 1677.35 455.184L1684.38 471.464C1677.23 478.864 1666.62 485.278 1652.56 490.704C1638.5 496.131 1624.2 498.844 1609.64 498.844ZM1647.38 372.304C1648.12 367.124 1648.49 361.821 1648.49 356.394C1648.25 340.361 1644.79 327.781 1638.13 318.654C1631.72 309.281 1621.48 304.594 1607.42 304.594C1593.12 304.594 1581.65 309.774 1573.01 320.134C1564.63 330.494 1559.82 347.884 1558.58 372.304H1647.38ZM1715.44 393.394C1715.44 372.921 1719.39 354.421 1727.28 337.894C1735.42 321.368 1747.26 308.294 1762.8 298.674C1778.59 288.808 1797.46 283.874 1819.41 283.874C1830.02 283.874 1839.15 284.861 1846.79 286.834C1854.44 288.808 1863.57 291.521 1874.17 294.974L1872.69 351.954H1848.64L1840.5 314.214C1839.02 307.308 1829.65 303.854 1812.38 303.854C1795.12 303.854 1781.43 310.884 1771.31 324.944C1761.45 338.758 1756.51 358.491 1756.51 384.144C1756.51 413.251 1762.06 435.451 1773.16 450.744C1784.51 465.791 1799.19 473.314 1817.19 473.314C1827.55 473.314 1837.3 471.711 1846.42 468.504C1855.8 465.298 1863.81 461.474 1870.47 457.034L1877.5 471.834C1870.84 478.741 1860.98 485.031 1847.9 490.704C1835.08 496.131 1822 498.844 1808.68 498.844C1788.46 498.844 1771.31 494.281 1757.25 485.154C1743.44 476.028 1732.96 463.571 1725.8 447.784C1718.9 431.751 1715.44 413.621 1715.44 393.394ZM1972.85 498.474C1958.79 498.474 1948.31 495.268 1941.4 488.854C1934.49 482.441 1931.04 471.464 1931.04 455.924V313.844H1904.4V297.194C1905.63 296.948 1909.09 296.084 1914.76 294.604C1920.43 293.124 1924.26 291.768 1926.23 290.534C1930.18 288.314 1933.26 283.874 1935.48 277.214C1937.45 272.528 1939.8 265.004 1942.51 254.644C1945.22 244.284 1946.83 238.118 1947.32 236.144H1969.15L1969.89 289.424H2031.68V313.844H1969.89V427.434C1969.89 441.494 1970.26 451.361 1971 457.034C1971.99 462.708 1973.84 466.408 1976.55 468.134C1979.51 469.861 1984.44 470.724 1991.35 470.724C1998.01 470.724 2005.29 469.861 2013.18 468.134C2021.32 466.408 2027.61 464.558 2032.05 462.584L2037.6 479.234C2031.68 483.674 2022.06 487.991 2008.74 492.184C1995.67 496.378 1983.7 498.474 1972.85 498.474ZM2103.92 252.424C2096.02 252.424 2090.1 250.204 2086.16 245.764C2082.21 241.324 2080.24 235.651 2080.24 228.744C2080.24 220.851 2082.58 214.314 2087.27 209.134C2092.2 203.954 2098.86 201.364 2107.25 201.364C2115.63 201.364 2121.8 203.584 2125.75 208.024C2129.69 212.464 2131.67 218.138 2131.67 225.044C2131.67 233.431 2129.2 240.091 2124.27 245.024C2119.58 249.958 2112.92 252.424 2104.29 252.424H2103.92ZM2089.12 317.914L2061 311.254V291.644L2118.35 284.614H2119.09L2127.6 291.274V473.684L2157.2 476.644V494.774H2059.15V476.644L2089.12 473.314V317.914ZM2166.45 289.424H2252.29V306.814L2226.02 311.624L2263.39 418.184L2278.93 465.174L2292.25 419.664L2329.62 311.624L2304.46 306.814V289.424H2379.57V306.814L2360.33 311.624L2288.92 497.734H2257.47L2183.1 311.624L2166.45 306.814V289.424ZM2484.78 498.844C2454.93 498.844 2432.12 489.101 2416.33 469.614C2400.79 450.128 2393.02 424.104 2393.02 391.544C2393.02 370.084 2397.09 351.214 2405.23 334.934C2413.37 318.654 2424.72 306.074 2439.27 297.194C2454.07 288.314 2470.84 283.874 2489.59 283.874C2512.53 283.874 2530.29 290.288 2542.87 303.114C2555.7 315.694 2562.48 333.824 2563.22 357.504C2563.22 372.551 2562.36 384.021 2560.63 391.914H2433.35C2433.84 416.334 2439.52 436.068 2450.37 451.114C2461.22 465.914 2476.64 473.314 2496.62 473.314C2506.49 473.314 2516.72 471.588 2527.33 468.134C2538.18 464.434 2546.57 460.118 2552.49 455.184L2559.52 471.464C2552.37 478.864 2541.76 485.278 2527.7 490.704C2513.64 496.131 2499.33 498.844 2484.78 498.844ZM2522.52 372.304C2523.26 367.124 2523.63 361.821 2523.63 356.394C2523.38 340.361 2519.93 327.781 2513.27 318.654C2506.86 309.281 2496.62 304.594 2482.56 304.594C2468.25 304.594 2456.78 309.774 2448.15 320.134C2439.76 330.494 2434.95 347.884 2433.72 372.304H2522.52ZM2773.47 217.644H2814.17L2904.08 472.944L2927.02 476.644V494.774H2829.34V476.644L2860.05 472.944L2842.66 418.184H2734.62L2717.23 472.944L2749.05 476.644V494.774H2661.36V476.644L2684.3 472.944L2773.47 217.644ZM2796.78 276.844L2787.53 244.284L2778.65 277.584L2741.28 396.354H2835.63L2796.78 276.844ZM2966.02 218.754L2936.05 214.684V198.774L2995.62 191.744H2996.36L3004.5 197.294V473.684L3035.95 476.644V494.774H2936.05V476.644L2966.02 473.314V218.754ZM3125.49 498.474C3111.43 498.474 3100.95 495.268 3094.04 488.854C3087.13 482.441 3083.68 471.464 3083.68 455.924V313.844H3057.04V297.194C3058.27 296.948 3061.73 296.084 3067.4 294.604C3073.07 293.124 3076.9 291.768 3078.87 290.534C3082.82 288.314 3085.9 283.874 3088.12 277.214C3090.09 272.528 3092.44 265.004 3095.15 254.644C3097.86 244.284 3099.47 238.118 3099.96 236.144H3121.79L3122.53 289.424H3184.32V313.844H3122.53V427.434C3122.53 441.494 3122.9 451.361 3123.64 457.034C3124.63 462.708 3126.48 466.408 3129.19 468.134C3132.15 469.861 3137.08 470.724 3143.99 470.724C3150.65 470.724 3157.93 469.861 3165.82 468.134C3173.96 466.408 3180.25 464.558 3184.69 462.584L3190.24 479.234C3184.32 483.674 3174.7 487.991 3161.38 492.184C3148.31 496.378 3136.34 498.474 3125.49 498.474ZM3213.63 476.644L3241.38 474.424V317.914L3214.74 311.254V291.274L3265.8 284.614H3266.54L3274.68 291.274V297.934L3273.57 326.794H3274.68C3277.15 322.601 3281.59 317.174 3288 310.514C3294.42 303.854 3302.68 297.811 3312.79 292.384C3322.91 286.711 3333.88 283.874 3345.72 283.874C3350.66 283.874 3354.73 284.491 3357.93 285.724V327.164C3356.21 325.931 3353.37 324.821 3349.42 323.834C3345.72 322.601 3341.53 321.984 3336.84 321.984C3316.37 321.984 3297.38 328.274 3279.86 340.854V474.054L3326.85 477.014V494.774H3213.63V476.644ZM3550.71 498.104C3543.8 498.104 3538.62 496.748 3535.17 494.034C3531.96 491.321 3530.36 486.881 3530.36 480.714V468.134C3522.22 476.274 3511.98 483.428 3499.65 489.594C3487.56 495.761 3475.35 498.844 3463.02 498.844C3440.08 498.844 3423.8 492.678 3414.18 480.344C3404.56 468.011 3399.75 447.661 3399.75 419.294V311.994L3379.03 306.074V289.794L3430.83 284.984H3431.2L3438.23 289.424V416.334C3438.23 430.641 3439.21 441.864 3441.19 450.004C3443.41 457.898 3447.11 463.818 3452.29 467.764C3457.71 471.464 3465.48 473.314 3475.6 473.314C3485.46 473.314 3494.71 471.218 3503.35 467.024C3511.98 462.831 3519.5 457.898 3525.92 452.224V311.994L3499.28 306.074V289.794L3555.52 284.984H3555.89L3564.4 289.424V475.904H3586.6L3586.23 492.554C3579.32 494.281 3573.28 495.638 3568.1 496.624C3563.16 497.611 3557.37 498.104 3550.71 498.104ZM3659.79 252.424C3651.9 252.424 3645.98 250.204 3642.03 245.764C3638.09 241.324 3636.11 235.651 3636.11 228.744C3636.11 220.851 3638.46 214.314 3643.14 209.134C3648.08 203.954 3654.74 201.364 3663.12 201.364C3671.51 201.364 3677.68 203.584 3681.62 208.024C3685.57 212.464 3687.54 218.138 3687.54 225.044C3687.54 233.431 3685.08 240.091 3680.14 245.024C3675.46 249.958 3668.8 252.424 3660.16 252.424H3659.79ZM3644.99 317.914L3616.87 311.254V291.644L3674.22 284.614H3674.96L3683.47 291.274V473.684L3713.07 476.644V494.774H3615.02V476.644L3644.99 473.314V317.914ZM3773.76 465.174C3776.22 468.874 3781.4 472.204 3789.3 475.164C3797.44 478.124 3805.95 479.604 3814.83 479.604C3828.89 479.604 3839.25 476.891 3845.91 471.464C3852.57 466.038 3855.9 458.514 3855.9 448.894C3855.9 442.234 3853.8 436.438 3849.61 431.504C3845.41 426.571 3839.49 422.254 3831.85 418.554C3824.45 414.608 3813.72 409.921 3799.66 404.494C3780.66 397.341 3766.73 388.831 3757.85 378.964C3749.21 368.851 3744.9 355.654 3744.9 339.374C3744.9 328.521 3748.1 319.024 3754.52 310.884C3761.18 302.744 3770.18 296.454 3781.53 292.014C3793.12 287.328 3805.95 284.984 3820.01 284.984C3831.35 284.984 3841.22 285.848 3849.61 287.574C3858.24 289.301 3865.15 291.028 3870.33 292.754C3875.51 294.481 3878.96 295.591 3880.69 296.084V341.964H3858.12L3850.72 314.584C3849.24 311.624 3845.29 309.158 3838.88 307.184C3832.46 304.964 3825.31 303.854 3817.42 303.854C3806.32 303.854 3797.31 306.321 3790.41 311.254C3783.75 316.188 3780.42 322.848 3780.42 331.234C3780.42 338.634 3782.14 344.801 3785.6 349.734C3789.3 354.421 3793.86 358.244 3799.29 361.204C3804.71 364.164 3812.11 367.618 3821.49 371.564L3828.89 374.524C3842.7 379.951 3853.92 385.131 3862.56 390.064C3871.19 394.998 3878.34 401.534 3884.02 409.674C3889.94 417.568 3892.9 427.311 3892.9 438.904C3892.9 457.158 3885.74 471.711 3871.44 482.564C3857.38 493.418 3838.01 498.844 3813.35 498.844C3801.26 498.844 3788.56 497.241 3775.24 494.034C3762.16 490.581 3751.43 487.128 3743.05 483.674V436.314H3767.1L3773.76 465.174ZM3925.78 476.644L3948.35 473.314V317.914L3921.71 311.254V291.274L3974.62 284.614L3981.28 289.424L3983.5 304.224L3983.13 316.064C3991.77 308.171 4003.48 301.018 4018.28 294.604C4033.33 287.944 4046.77 284.614 4058.61 284.614C4071.93 284.614 4082.66 286.834 4090.8 291.274C4098.94 295.714 4105.11 302.621 4109.3 311.994C4117.2 305.334 4128.17 299.168 4142.23 293.494C4156.54 287.574 4169.86 284.614 4182.19 284.614C4197.49 284.614 4209.45 287.574 4218.08 293.494C4226.72 299.168 4232.76 308.171 4236.21 320.504C4239.91 332.591 4241.76 348.871 4241.76 369.344V473.314L4268.4 476.644V494.774H4180.34V476.644L4203.28 473.314V370.454C4203.28 356.148 4202.17 344.801 4199.95 336.414C4197.98 327.781 4194.03 321.368 4188.11 317.174C4182.44 312.981 4174.18 310.884 4163.32 310.884C4155.18 310.884 4146.55 312.734 4137.42 316.434C4128.3 319.888 4120.53 324.081 4114.11 329.014C4116.33 338.634 4117.44 352.324 4117.44 370.084V473.314L4143.71 476.644V494.774H4054.17V476.644L4078.59 473.314V369.714C4078.59 354.914 4077.61 343.444 4075.63 335.304C4073.91 327.164 4070.45 321.121 4065.27 317.174C4060.09 312.981 4052.2 310.884 4041.59 310.884C4032.71 310.884 4023.22 313.104 4013.1 317.544C4003.24 321.984 3994.6 327.164 3987.2 333.084V473.314L4011.99 476.644V494.774H3925.78V476.644ZM1066.05 683.384H1122.66L1208.13 933.874L1229.59 937.574V959.774H1120.44V937.574L1148.19 933.874L1133.76 885.774H1037.93L1023.5 934.244L1053.47 937.574V959.774H959.121L958.751 937.574L980.951 933.874L1066.05 683.384ZM1091.58 745.914L1084.92 717.054L1077.89 746.284L1044.96 859.874H1126.36L1091.58 745.914ZM1408.36 963.474C1400.22 963.474 1394.3 961.748 1390.6 958.294C1386.9 954.841 1385.05 949.661 1385.05 942.754V932.764C1378.39 940.904 1369.01 948.181 1356.93 954.594C1344.84 960.761 1332.75 963.844 1320.67 963.844C1296.99 963.844 1280.09 957.801 1269.98 945.714C1259.86 933.381 1254.81 913.154 1254.81 885.034V780.694L1236.31 775.514V754.424L1299.21 749.614H1299.58L1306.98 754.794V885.034C1306.98 903.041 1309.2 915.621 1313.64 922.774C1318.08 929.928 1326.34 933.504 1338.43 933.504C1352.98 933.504 1366.55 927.831 1379.13 916.484V780.694L1354.34 775.144V754.424L1421.31 749.614H1422.05L1430.93 754.794V936.834H1451.65L1451.28 957.924C1450.29 958.171 1445.73 959.158 1437.59 960.884C1429.45 962.611 1419.7 963.474 1408.36 963.474ZM1518.86 929.434C1520.84 932.394 1525.28 935.231 1532.18 937.944C1539.34 940.411 1546.49 941.644 1553.64 941.644C1565.24 941.644 1573.87 939.301 1579.54 934.614C1585.46 929.681 1588.42 923.268 1588.42 915.374C1588.42 907.234 1584.85 900.698 1577.69 895.764C1570.54 890.584 1558.45 884.294 1541.43 876.894L1531.07 872.454C1514.05 865.301 1501.35 856.668 1492.96 846.554C1484.58 836.441 1480.38 823.368 1480.38 807.334C1480.38 796.234 1483.71 786.368 1490.37 777.734C1497.03 768.854 1506.41 761.948 1518.49 757.014C1530.58 752.081 1544.52 749.614 1560.3 749.614C1571.9 749.614 1581.76 750.354 1589.9 751.834C1598.29 753.314 1607.05 755.288 1616.17 757.754C1621.11 759.481 1624.81 760.468 1627.27 760.714V809.184H1598.04L1589.53 781.064C1588.05 778.598 1584.72 776.378 1579.54 774.404C1574.36 772.431 1568.44 771.444 1561.78 771.444C1551.67 771.444 1543.53 773.664 1537.36 778.104C1531.44 782.298 1528.48 788.218 1528.48 795.864C1528.48 802.771 1530.58 808.568 1534.77 813.254C1538.97 817.694 1543.53 821.148 1548.46 823.614C1553.4 826.081 1562.52 830.151 1575.84 835.824C1589.16 841.498 1600.14 846.924 1608.77 852.104C1617.65 857.284 1624.93 864.068 1630.6 872.454C1636.52 880.594 1639.48 890.584 1639.48 902.424C1639.48 920.678 1632.33 935.478 1618.02 946.824C1603.72 958.171 1583.12 963.844 1556.23 963.844C1543.65 963.844 1532.31 962.734 1522.19 960.514C1512.33 958.294 1500.86 955.334 1487.78 951.634L1479.64 949.044V900.204H1510.35L1518.86 929.434ZM1731.82 963.104C1716.28 963.104 1704.81 959.528 1697.41 952.374C1690.01 945.221 1686.31 933.874 1686.31 918.334V782.544H1662.26V763.304C1664.23 762.564 1667.81 761.331 1672.99 759.604C1678.17 757.631 1682.12 756.028 1684.83 754.794C1689.02 751.588 1692.6 746.038 1695.56 738.144C1697.78 732.964 1701.85 720.138 1707.77 699.664H1737.37L1738.85 754.054H1795.46V782.544H1739.22V886.514C1739.22 900.328 1739.59 910.071 1740.33 915.744C1741.07 921.418 1742.67 925.118 1745.14 926.844C1747.61 928.324 1751.92 929.064 1758.09 929.064C1764.26 929.064 1770.67 928.448 1777.33 927.214C1783.99 925.734 1789.54 924.008 1793.98 922.034L1801.01 942.754C1794.1 947.934 1783.99 952.621 1770.67 956.814C1757.35 961.008 1744.4 963.104 1731.82 963.104ZM1820.69 937.944L1845.11 934.984V789.204L1821.43 782.544V757.014L1878.78 749.244H1879.89L1889.14 756.644V764.784L1888.03 794.754H1889.14C1890.87 789.821 1894.94 783.778 1901.35 776.624C1907.77 769.224 1915.78 762.811 1925.4 757.384C1935.27 751.711 1945.88 748.874 1957.22 748.874C1962.65 748.874 1967.34 749.614 1971.28 751.094V806.594C1963.88 801.414 1954.88 798.824 1944.27 798.824C1926.27 798.824 1910.6 803.634 1897.28 813.254V934.614L1940.2 937.944V959.774H1820.69V937.944ZM1990.79 902.054C1990.79 879.608 2002.01 862.711 2024.46 851.364C2047.15 840.018 2076.38 834.221 2112.15 833.974V825.464C2112.15 815.351 2111.04 807.458 2108.82 801.784C2106.84 796.111 2103.02 791.918 2097.35 789.204C2091.92 786.244 2083.9 784.764 2073.3 784.764C2061.21 784.764 2050.36 786.368 2040.74 789.574C2031.12 792.534 2021.13 796.481 2010.77 801.414L1999.3 777.734C2003 774.528 2009.16 770.704 2017.8 766.264C2026.68 761.824 2037.16 758.001 2049.25 754.794C2061.33 751.341 2073.79 749.614 2086.62 749.614C2105.61 749.614 2120.41 752.081 2131.02 757.014C2141.87 761.948 2149.64 769.841 2154.33 780.694C2159.01 791.548 2161.36 806.101 2161.36 824.354V937.574H2181.34V958.294C2176.4 959.528 2169.37 960.761 2160.25 961.994C2151.12 963.228 2143.1 963.844 2136.2 963.844C2127.81 963.844 2122.14 962.611 2119.18 960.144C2116.46 957.678 2115.11 952.621 2115.11 944.974V934.984C2108.45 942.384 2099.81 949.044 2089.21 954.964C2078.6 960.884 2066.64 963.844 2053.32 963.844C2041.97 963.844 2031.49 961.501 2021.87 956.814C2012.49 951.881 2004.97 944.851 1999.3 935.724C1993.62 926.351 1990.79 915.128 1990.79 902.054ZM2077 933.134C2082.18 933.134 2088.1 931.654 2094.76 928.694C2101.42 925.488 2107.21 921.664 2112.15 917.224V856.544C2089.95 856.544 2073.3 860.368 2062.2 868.014C2051.34 875.414 2045.92 885.034 2045.92 896.874C2045.92 908.714 2048.63 917.718 2054.06 923.884C2059.73 930.051 2067.38 933.134 2077 933.134ZM2225.89 689.304L2198.51 684.494V664.514L2266.96 656.374H2267.7L2277.69 663.404V934.614L2304.7 937.574V959.774H2199.99V937.574L2225.89 934.244V689.304ZM2374.2 720.384C2365.32 720.384 2358.29 717.794 2353.11 712.614C2347.93 707.434 2345.34 700.774 2345.34 692.634C2345.34 683.261 2348.3 675.491 2354.22 669.324C2360.14 663.158 2368.03 660.074 2377.9 660.074C2387.76 660.074 2395.29 662.788 2400.47 668.214C2405.65 673.394 2408.24 679.931 2408.24 687.824C2408.24 697.691 2405.28 705.584 2399.36 711.504C2393.44 717.424 2385.17 720.384 2374.57 720.384H2374.2ZM2354.59 789.204L2328.32 782.174V757.384L2396.03 749.244H2396.77L2407.13 756.644V934.614L2431.92 937.574V959.774H2328.69V937.574L2354.59 934.244V789.204ZM2454.37 902.054C2454.37 879.608 2465.59 862.711 2488.04 851.364C2510.73 840.018 2539.96 834.221 2575.73 833.974V825.464C2575.73 815.351 2574.62 807.458 2572.4 801.784C2570.43 796.111 2566.6 791.918 2560.93 789.204C2555.5 786.244 2547.49 784.764 2536.88 784.764C2524.79 784.764 2513.94 786.368 2504.32 789.574C2494.7 792.534 2484.71 796.481 2474.35 801.414L2462.88 777.734C2466.58 774.528 2472.75 770.704 2481.38 766.264C2490.26 761.824 2500.74 758.001 2512.83 754.794C2524.92 751.341 2537.37 749.614 2550.2 749.614C2569.19 749.614 2583.99 752.081 2594.6 757.014C2605.45 761.948 2613.22 769.841 2617.91 780.694C2622.6 791.548 2624.94 806.101 2624.94 824.354V937.574H2644.92V958.294C2639.99 959.528 2632.96 960.761 2623.83 961.994C2614.7 963.228 2606.69 963.844 2599.78 963.844C2591.39 963.844 2585.72 962.611 2582.76 960.144C2580.05 957.678 2578.69 952.621 2578.69 944.974V934.984C2572.03 942.384 2563.4 949.044 2552.79 954.964C2542.18 960.884 2530.22 963.844 2516.9 963.844C2505.55 963.844 2495.07 961.501 2485.45 956.814C2476.08 951.881 2468.55 944.851 2462.88 935.724C2457.21 926.351 2454.37 915.128 2454.37 902.054ZM2540.58 933.134C2545.76 933.134 2551.68 931.654 2558.34 928.694C2565 925.488 2570.8 921.664 2575.73 917.224V856.544C2553.53 856.544 2536.88 860.368 2525.78 868.014C2514.93 875.414 2509.5 885.034 2509.5 896.874C2509.5 908.714 2512.21 917.718 2517.64 923.884C2523.31 930.051 2530.96 933.134 2540.58 933.134ZM2711.3 812.144C2703.65 812.144 2696.99 809.554 2691.32 804.374C2685.65 798.948 2682.81 792.164 2682.81 784.024C2682.81 774.898 2686.02 767.498 2692.43 761.824C2699.09 755.904 2707.11 752.944 2716.48 752.944C2725.36 752.944 2732.39 755.781 2737.57 761.454C2743 766.881 2745.71 773.418 2745.71 781.064C2745.71 790.684 2742.5 798.331 2736.09 804.004C2729.68 809.431 2721.41 812.144 2711.3 812.144ZM2711.3 963.104C2703.65 963.104 2696.99 960.514 2691.32 955.334C2685.65 949.908 2682.81 943.124 2682.81 934.984C2682.81 925.858 2686.02 918.458 2692.43 912.784C2699.09 906.864 2707.11 903.904 2716.48 903.904C2725.36 903.904 2732.39 906.741 2737.57 912.414C2743 917.841 2745.71 924.378 2745.71 932.024C2745.71 941.644 2742.5 949.291 2736.09 954.964C2729.68 960.391 2721.41 963.104 2711.3 963.104ZM2908.93 712.614L2879.33 707.804V684.864H3076.54L3081.35 747.024H3055.45L3043.24 710.394L2963.32 707.064V806.594L3014.75 805.484L3020.67 775.144H3044.35V864.684H3020.67L3014.75 832.864L2963.32 831.754V936.094L3052.86 931.654L3074.32 884.294L3102.07 892.064L3092.45 959.774H2879.7V937.574L2908.93 933.874V712.614ZM3145.09 789.204L3121.41 782.544V757.014L3182.83 749.244H3183.94L3193.19 756.644V771.074L3192.82 779.954C3201.45 771.814 3212.67 764.784 3226.49 758.864C3240.3 752.944 3254.24 749.984 3268.3 749.984C3283.34 749.984 3295.06 752.821 3303.45 758.494C3312.08 763.921 3318.25 772.554 3321.95 784.394C3325.65 796.234 3327.5 812.268 3327.5 832.494V934.614L3350.07 937.574V959.774H3254.61V937.574L3274.59 934.614V832.494C3274.59 819.668 3273.72 809.678 3272 802.524C3270.27 795.124 3267.06 789.821 3262.38 786.614C3257.94 783.161 3251.52 781.434 3243.14 781.434C3229.08 781.434 3214.03 787.478 3198 799.564V934.244L3220.2 937.574V959.774H3123.63V937.574L3145.09 934.244V789.204ZM3357.34 754.054H3455.02V775.514L3430.6 780.324L3464.27 880.964L3476.11 920.184L3486.1 882.074L3519.03 780.324L3495.72 775.514V754.054H3577.12V775.514L3557.88 780.324L3489.06 962.734H3446.14L3372.51 780.324L3357.34 775.514V754.054ZM3631.62 720.384C3622.74 720.384 3615.71 717.794 3610.53 712.614C3605.35 707.434 3602.76 700.774 3602.76 692.634C3602.76 683.261 3605.72 675.491 3611.64 669.324C3617.56 663.158 3625.45 660.074 3635.32 660.074C3645.19 660.074 3652.71 662.788 3657.89 668.214C3663.07 673.394 3665.66 679.931 3665.66 687.824C3665.66 697.691 3662.7 705.584 3656.78 711.504C3650.86 717.424 3642.6 720.384 3631.99 720.384H3631.62ZM3612.01 789.204L3585.74 782.174V757.384L3653.45 749.244H3654.19L3664.55 756.644V934.614L3689.34 937.574V959.774H3586.11V937.574L3612.01 934.244V789.204ZM3715.86 937.944L3740.28 934.984V789.204L3716.6 782.544V757.014L3773.95 749.244H3775.06L3784.31 756.644V764.784L3783.2 794.754H3784.31C3786.04 789.821 3790.11 783.778 3796.52 776.624C3802.93 769.224 3810.95 762.811 3820.57 757.384C3830.44 751.711 3841.04 748.874 3852.39 748.874C3857.82 748.874 3862.5 749.614 3866.45 751.094V806.594C3859.05 801.414 3850.05 798.824 3839.44 798.824C3821.43 798.824 3805.77 803.634 3792.45 813.254V934.614L3835.37 937.944V959.774H3715.86V937.944ZM3890.02 857.284C3890.02 834.098 3894.58 814.364 3903.71 798.084C3913.08 781.804 3925.54 769.594 3941.08 761.454C3956.62 753.068 3973.52 748.874 3991.77 748.874C4022.85 748.874 4046.78 758.494 4063.55 777.734C4080.57 796.728 4089.08 822.628 4089.08 855.434C4089.08 878.868 4084.39 898.848 4075.02 915.374C4065.89 931.654 4053.56 943.864 4038.02 952.004C4022.73 959.898 4005.83 963.844 3987.33 963.844C3956.5 963.844 3932.57 954.348 3915.55 935.354C3898.53 916.114 3890.02 890.091 3890.02 857.284ZM3990.29 939.794C4018.16 939.794 4032.1 912.908 4032.1 859.134C4032.1 831.014 4028.77 809.678 4022.11 795.124C4015.45 780.324 4004.6 772.924 3989.55 772.924C3960.94 772.924 3946.63 799.811 3946.63 853.584C3946.63 881.704 3950.08 903.164 3956.99 917.964C3964.14 932.518 3975.24 939.794 3990.29 939.794ZM4143.44 789.204L4119.76 782.544V757.014L4181.18 749.244H4182.29L4191.54 756.644V771.074L4191.17 779.954C4199.8 771.814 4211.02 764.784 4224.84 758.864C4238.65 752.944 4252.59 749.984 4266.65 749.984C4281.69 749.984 4293.41 752.821 4301.8 758.494C4310.43 763.921 4316.6 772.554 4320.3 784.394C4324 796.234 4325.85 812.268 4325.85 832.494V934.614L4348.42 937.574V959.774H4252.96V937.574L4272.94 934.614V832.494C4272.94 819.668 4272.07 809.678 4270.35 802.524C4268.62 795.124 4265.41 789.821 4260.73 786.614C4256.29 783.161 4249.87 781.434 4241.49 781.434C4227.43 781.434 4212.38 787.478 4196.35 799.564V934.244L4218.55 937.574V959.774H4121.98V937.574L4143.44 934.244V789.204ZM4374.56 937.574L4395.28 934.244V789.204L4371.6 782.544V757.014L4433.02 749.244L4437.46 752.204L4443.01 764.414V779.954C4451.15 772.061 4462.75 765.154 4477.79 759.234C4493.09 753.068 4506.28 749.984 4517.38 749.984C4530.7 749.984 4541.43 752.204 4549.57 756.644C4557.96 761.084 4564.25 767.991 4568.44 777.364C4576.58 769.964 4587.31 763.551 4600.63 758.124C4613.95 752.698 4627.03 749.984 4639.85 749.984C4661.81 749.984 4677.35 756.398 4686.47 769.224C4695.6 782.051 4700.16 803.018 4700.16 832.124V934.244L4724.21 937.574V959.774H4628.38V937.574L4647.62 934.244V833.604C4647.62 814.364 4645.28 800.921 4640.59 793.274C4636.15 785.381 4627.52 781.434 4614.69 781.434C4607.79 781.434 4600.63 783.038 4593.23 786.244C4586.08 789.204 4579.67 792.904 4573.99 797.344C4575.72 806.718 4576.58 818.434 4576.58 832.494V934.244L4599.52 937.574V959.774H4502.95V937.574L4523.3 934.244V832.494C4523.3 819.668 4522.44 809.678 4520.71 802.524C4519.23 795.124 4516.27 789.821 4511.83 786.614C4507.39 783.161 4500.98 781.434 4492.59 781.434C4484.7 781.434 4476.81 783.284 4468.91 786.984C4461.27 790.438 4454.36 794.631 4448.19 799.564V934.244L4470.02 937.574V959.774H4374.56V937.574ZM4842.5 963.844C4809.94 963.844 4785.64 954.348 4769.61 935.354C4753.82 916.114 4745.93 889.968 4745.93 856.914C4745.93 834.714 4750 815.474 4758.14 799.194C4766.53 782.914 4778.24 770.458 4793.29 761.824C4808.34 753.191 4825.73 748.874 4845.46 748.874C4870.13 748.874 4889.12 755.411 4902.44 768.484C4915.76 781.311 4922.67 799.688 4923.16 823.614C4923.16 839.894 4922.17 851.981 4920.2 859.874H4799.95C4800.94 882.321 4806.24 899.834 4815.86 912.414C4825.48 924.748 4839.17 930.914 4856.93 930.914C4866.55 930.914 4876.42 929.311 4886.53 926.104C4896.89 922.898 4905.03 919.074 4910.95 914.634L4920.2 934.984C4913.54 942.138 4902.69 948.798 4887.64 954.964C4872.84 960.884 4857.79 963.844 4842.5 963.844ZM4871.36 837.674C4871.85 830.768 4872.1 825.464 4872.1 821.764C4872.1 788.958 4861.12 772.554 4839.17 772.554C4827.08 772.554 4817.71 777.364 4811.05 786.984C4804.39 796.604 4800.69 813.501 4799.95 837.674H4871.36ZM4973.41 789.204L4949.73 782.544V757.014L5011.15 749.244H5012.26L5021.51 756.644V771.074L5021.14 779.954C5029.77 771.814 5040.99 764.784 5054.81 758.864C5068.62 752.944 5082.56 749.984 5096.62 749.984C5111.66 749.984 5123.38 752.821 5131.77 758.494C5140.4 763.921 5146.57 772.554 5150.27 784.394C5153.97 796.234 5155.82 812.268 5155.82 832.494V934.614L5178.39 937.574V959.774H5082.93V937.574L5102.91 934.614V832.494C5102.91 819.668 5102.04 809.678 5100.32 802.524C5098.59 795.124 5095.38 789.821 5090.7 786.614C5086.26 783.161 5079.84 781.434 5071.46 781.434C5057.4 781.434 5042.35 787.478 5026.32 799.564V934.244L5048.52 937.574V959.774H4951.95V937.574L4973.41 934.244V789.204ZM5266.69 963.104C5251.15 963.104 5239.68 959.528 5232.28 952.374C5224.88 945.221 5221.18 933.874 5221.18 918.334V782.544H5197.13V763.304C5199.11 762.564 5202.68 761.331 5207.86 759.604C5213.04 757.631 5216.99 756.028 5219.7 754.794C5223.9 751.588 5227.47 746.038 5230.43 738.144C5232.65 732.964 5236.72 720.138 5242.64 699.664H5272.24L5273.72 754.054H5330.33V782.544H5274.09V886.514C5274.09 900.328 5274.46 910.071 5275.2 915.744C5275.94 921.418 5277.55 925.118 5280.01 926.844C5282.48 928.324 5286.8 929.064 5292.96 929.064C5299.13 929.064 5305.54 928.448 5312.2 927.214C5318.86 925.734 5324.41 924.008 5328.85 922.034L5335.88 942.754C5328.98 947.934 5318.86 952.621 5305.54 956.814C5292.22 961.008 5279.27 963.104 5266.69 963.104Z" fill="black"/>
</svg>
