<svg width="4407" height="1191" viewBox="0 0 4407 1191" fill="none" xmlns="http://www.w3.org/2000/svg">
<path d="M574.977 1009.18C590.048 1021.24 604.392 1034.16 615.977 1052.68C624.218 1065.86 621.149 1081.94 607.977 1090.18C595.216 1098.16 577.354 1096.03 568.832 1083.83L568.035 1082.62L566.477 1080.18C550.215 1055.39 527.115 1042.88 494.177 1035.47C463.395 1028.55 423.604 1026.82 369.366 1026.82C348.5 1026.82 312 1032.47 312 996.68C312 957.68 522.5 967.18 574.977 1009.18Z" fill="url(#paint0_linear_4_35)"/>
<path d="M565.035 879.558C575.415 883.835 586.771 889.229 594.639 896.196C609.905 909.714 619.357 926.695 619.357 946.283C619.357 968.994 612.663 980.494 598.163 994.494C592.351 1000.11 572.163 1013.99 543.663 1019.49C514.371 1025.15 445.67 1026.23 369.029 1027.13C359.178 1027.32 349.019 1027.49 338.553 1027.64C323.05 1027.87 310.284 1014.51 310.007 999.009C309.73 983.503 322.613 970.68 338.113 970.355C384.496 969.383 401.389 969.513 447.772 970.345C456.964 970.51 561.172 968.494 561.172 948.244C561.172 936.184 535.437 929.026 525.149 926.695C488.914 918.485 429.741 914.945 338.176 915.083C322.785 915.105 310.231 903.752 310.003 888.358C309.775 872.965 322.728 862.225 338.113 861.791C414.101 861.791 494.779 850.606 565.035 879.558Z" fill="url(#paint1_linear_4_35)"/>
<path d="M417.654 451.383C413.635 447.363 401.578 425.282 375.477 425.282C362.828 425.282 350.799 433.63 344.314 440.411C337.829 447.192 331.085 459.055 331.273 474.154C331.556 496.987 336.949 514.79 347.54 535.308C357.982 555.54 374.967 577.459 406.441 611.053L412.917 617.904L413.891 618.976C423.607 630.254 422.873 647.296 411.983 657.689C401.093 668.083 384.039 668.016 373.233 657.78L372.208 656.755L365.485 649.649C332.6 614.566 311.488 588.141 297.544 561.125C282.123 531.247 276.377 504.451 276.01 474.853C275.61 442.673 287.799 415.441 307.706 397.549C327.03 380.181 347.54 370 377.477 370C409.799 370 427.92 386.377 446.299 405.13C477.997 437.473 432.894 466.626 417.654 451.383Z" fill="url(#paint2_linear_4_35)"/>
<path d="M703.71 410.622C703.71 264.5 577.477 151.282 445.498 151.282C310.477 151.282 182.161 258.505 184.263 417.315C185.477 509 231.189 559.599 257.844 594.465C268.445 608.332 278.551 630.714 285.699 648.281C293.065 666.383 298.148 684.105 299.916 690.96C304.067 707.051 309.477 714 313.977 719C317.443 722.851 323.065 726.241 325.477 727.5C329.015 729.347 340.977 732.163 348.018 732.163H395.756C416.355 732.163 422.477 720.975 448.433 690.92C472.977 662.5 501.499 622.5 527.818 568.829C548.944 525.745 557.565 502.149 556.041 469.173C555.029 447.28 547.035 442.897 541.956 437.924C536.974 433.047 528.011 427.592 514.961 427.652C494.713 427.745 477.977 443 468.58 452.793C472.532 460.833 473.532 471.863 473.532 479.668C473.532 486.166 472.267 493.965 467.57 502.442C461.948 512.59 454.032 519.105 442.456 519.105C432.466 519.105 423.807 513.768 417.332 504.035C411.983 495.994 410.303 486.934 410.303 478.894C410.303 463.055 416.322 448.773 418.332 444.753C426.314 428.784 432.775 418.531 444.977 405.5C463.152 386.091 486.586 371.509 516.702 371.37C539.821 371.264 563.793 380.569 582.315 398.703C600.739 416.742 610.819 438.627 612.249 469.574C614.53 518.932 598.503 551.917 579.566 593.154C579.345 593.635 579.112 594.111 578.864 594.579C559.989 630.226 530.103 676.12 502.742 713.291C489.097 731.827 475.309 748.907 462.924 761.635C456.781 767.947 450.327 773.878 443.876 778.43C438.54 782.195 428.581 788.444 416.355 788.445H352.935C347.54 788.445 330.477 787 324.869 786.136C321.315 785.589 308.008 781.487 304.653 779.735C297.921 776.221 290.506 773.199 283.219 766.62C268.541 753.37 253.691 737.152 246.435 709.023C245.61 705.827 239.642 685.845 232.585 668.501C221.395 641 208.977 622 192.977 603C174.029 580.5 128 509 128 417.928C128 228.989 274.687 95.9993 445.498 96C600.136 96.0007 759.977 219 759.977 413.622C759.977 517 705.379 603 689.977 618.274C656.977 651 630.202 711 630.202 799.438C630.202 809.5 623.808 824.418 622.164 827.574C609.439 852.012 587.668 867.485 562.872 880.564C502 912.669 368.973 915.5 337.5 915.5C320 915.5 308.728 903.893 308.5 888.5C308.272 873.107 319.5 859 336 859C408.343 859 458.845 853.088 499.477 843C553.977 829.469 572.894 808.001 573.477 796.5C577.864 710 592.141 675.308 607.977 638.5C626.873 594.579 703.71 543.5 703.71 410.622Z" fill="#0A879D"/>
<path d="M1013.71 242.484L983.367 238.044V219.544H1171.7L1176.88 276.894H1155.79L1145.06 241.004L1053.3 238.784V343.124L1115.09 342.014L1120.27 311.304H1140.62V396.404H1120.27L1115.09 364.584L1053.3 363.474V473.734L1157.64 470.034L1177.25 423.414L1199.08 430.074L1188.35 494.454H982.997V476.324L1013.71 472.624V242.484ZM1253.23 313.524H1218.45V296.504L1253.23 289.474V272.084C1253.23 256.791 1257.18 242.731 1265.07 229.904C1273.21 217.077 1283.7 206.964 1296.52 199.564C1309.6 191.917 1323.41 188.094 1337.96 188.094C1346.35 188.094 1353.63 189.204 1359.79 191.424V228.424C1357.57 226.451 1353.13 224.601 1346.47 222.874C1340.06 220.901 1332.91 219.914 1325.01 219.914C1313.42 219.914 1304.91 222.997 1299.48 229.164C1294.3 235.084 1291.71 245.444 1291.71 260.244V289.474H1342.77V313.524H1291.71V473.364L1332.78 476.324V494.454H1221.78V476.324L1253.23 472.994V313.524ZM1401.23 313.524H1366.45V296.504L1401.23 289.474V272.084C1401.23 256.791 1405.18 242.731 1413.07 229.904C1421.21 217.077 1431.7 206.964 1444.52 199.564C1457.6 191.917 1471.41 188.094 1485.96 188.094C1494.35 188.094 1501.63 189.204 1507.79 191.424V228.424C1505.57 226.451 1501.13 224.601 1494.47 222.874C1488.06 220.901 1480.91 219.914 1473.01 219.914C1461.42 219.914 1452.91 222.997 1447.48 229.164C1442.3 235.084 1439.71 245.444 1439.71 260.244V289.474H1490.77V313.524H1439.71V473.364L1480.78 476.324V494.454H1369.78V476.324L1401.23 472.994V313.524ZM1610.58 498.524C1580.73 498.524 1557.92 488.781 1542.13 469.294C1526.59 449.807 1518.82 423.784 1518.82 391.224C1518.82 369.764 1522.89 350.894 1531.03 334.614C1539.17 318.334 1550.52 305.754 1565.07 296.874C1579.87 287.994 1596.64 283.554 1615.39 283.554C1638.33 283.554 1656.09 289.967 1668.67 302.794C1681.5 315.374 1688.28 333.504 1689.02 357.184C1689.02 372.231 1688.16 383.701 1686.43 391.594H1559.15C1559.64 416.014 1565.32 435.747 1576.17 450.794C1587.02 465.594 1602.44 472.994 1622.42 472.994C1632.29 472.994 1642.52 471.267 1653.13 467.814C1663.98 464.114 1672.37 459.797 1678.29 454.864L1685.32 471.144C1678.17 478.544 1667.56 484.957 1653.5 490.384C1639.44 495.811 1625.13 498.524 1610.58 498.524ZM1648.32 371.984C1649.06 366.804 1649.43 361.501 1649.43 356.074C1649.18 340.041 1645.73 327.461 1639.07 318.334C1632.66 308.961 1622.42 304.274 1608.36 304.274C1594.05 304.274 1582.58 309.454 1573.95 319.814C1565.56 330.174 1560.75 347.564 1559.52 371.984H1648.32ZM1716.38 393.074C1716.38 372.601 1720.33 354.101 1728.22 337.574C1736.36 321.047 1748.2 307.974 1763.74 298.354C1779.53 288.487 1798.4 283.554 1820.35 283.554C1830.96 283.554 1840.08 284.541 1847.73 286.514C1855.38 288.487 1864.5 291.201 1875.11 294.654L1873.63 351.634H1849.58L1841.44 313.894C1839.96 306.987 1830.59 303.534 1813.32 303.534C1796.05 303.534 1782.36 310.564 1772.25 324.624C1762.38 338.437 1757.45 358.171 1757.45 383.824C1757.45 412.931 1763 435.131 1774.1 450.424C1785.45 465.471 1800.12 472.994 1818.13 472.994C1828.49 472.994 1838.23 471.391 1847.36 468.184C1856.73 464.977 1864.75 461.154 1871.41 456.714L1878.44 471.514C1871.78 478.421 1861.91 484.711 1848.84 490.384C1836.01 495.811 1822.94 498.524 1809.62 498.524C1789.39 498.524 1772.25 493.961 1758.19 484.834C1744.38 475.707 1733.89 463.251 1726.74 447.464C1719.83 431.431 1716.38 413.301 1716.38 393.074ZM1973.79 498.154C1959.73 498.154 1949.24 494.947 1942.34 488.534C1935.43 482.121 1931.98 471.144 1931.98 455.604V313.524H1905.34V296.874C1906.57 296.627 1910.02 295.764 1915.7 294.284C1921.37 292.804 1925.19 291.447 1927.17 290.214C1931.11 287.994 1934.2 283.554 1936.42 276.894C1938.39 272.207 1940.73 264.684 1943.45 254.324C1946.16 243.964 1947.76 237.797 1948.26 235.824H1970.09L1970.83 289.104H2032.62V313.524H1970.83V427.114C1970.83 441.174 1971.2 451.041 1971.94 456.714C1972.92 462.387 1974.77 466.087 1977.49 467.814C1980.45 469.541 1985.38 470.404 1992.29 470.404C1998.95 470.404 2006.22 469.541 2014.12 467.814C2022.26 466.087 2028.55 464.237 2032.99 462.264L2038.54 478.914C2032.62 483.354 2023 487.671 2009.68 491.864C1996.6 496.057 1984.64 498.154 1973.79 498.154ZM2104.85 252.104C2096.96 252.104 2091.04 249.884 2087.09 245.444C2083.14 241.004 2081.17 235.331 2081.17 228.424C2081.17 220.531 2083.51 213.994 2088.2 208.814C2093.13 203.634 2099.79 201.044 2108.18 201.044C2116.57 201.044 2122.73 203.264 2126.68 207.704C2130.63 212.144 2132.6 217.817 2132.6 224.724C2132.6 233.111 2130.13 239.771 2125.2 244.704C2120.51 249.637 2113.85 252.104 2105.22 252.104H2104.85ZM2090.05 317.594L2061.93 310.934V291.324L2119.28 284.294H2120.02L2128.53 290.954V473.364L2158.13 476.324V494.454H2060.08V476.324L2090.05 472.994V317.594ZM2167.38 289.104H2253.22V306.494L2226.95 311.304L2264.32 417.864L2279.86 464.854L2293.18 419.344L2330.55 311.304L2305.39 306.494V289.104H2380.5V306.494L2361.26 311.304L2289.85 497.414H2258.4L2184.03 311.304L2167.38 306.494V289.104ZM2485.72 498.524C2455.87 498.524 2433.05 488.781 2417.27 469.294C2401.73 449.807 2393.96 423.784 2393.96 391.224C2393.96 369.764 2398.03 350.894 2406.17 334.614C2414.31 318.334 2425.65 305.754 2440.21 296.874C2455.01 287.994 2471.78 283.554 2490.53 283.554C2513.47 283.554 2531.23 289.967 2543.81 302.794C2556.63 315.374 2563.42 333.504 2564.16 357.184C2564.16 372.231 2563.29 383.701 2561.57 391.594H2434.29C2434.78 416.014 2440.45 435.747 2451.31 450.794C2462.16 465.594 2477.58 472.994 2497.56 472.994C2507.42 472.994 2517.66 471.267 2528.27 467.814C2539.12 464.114 2547.51 459.797 2553.43 454.864L2560.46 471.144C2553.3 478.544 2542.7 484.957 2528.64 490.384C2514.58 495.811 2500.27 498.524 2485.72 498.524ZM2523.46 371.984C2524.2 366.804 2524.57 361.501 2524.57 356.074C2524.32 340.041 2520.87 327.461 2514.21 318.334C2507.79 308.961 2497.56 304.274 2483.5 304.274C2469.19 304.274 2457.72 309.454 2449.09 319.814C2440.7 330.174 2435.89 347.564 2434.66 371.984H2523.46ZM2774.41 217.324H2815.11L2905.02 472.624L2927.96 476.324V494.454H2830.28V476.324L2860.99 472.624L2843.6 417.864H2735.56L2718.17 472.624L2749.99 476.324V494.454H2662.3V476.324L2685.24 472.624L2774.41 217.324ZM2797.72 276.524L2788.47 243.964L2779.59 277.264L2742.22 396.034H2836.57L2797.72 276.524ZM2966.95 218.434L2936.98 214.364V198.454L2996.55 191.424H2997.29L3005.43 196.974V473.364L3036.88 476.324V494.454H2936.98V476.324L2966.95 472.994V218.434ZM3126.42 498.154C3112.36 498.154 3101.88 494.947 3094.97 488.534C3088.07 482.121 3084.61 471.144 3084.61 455.604V313.524H3057.97V296.874C3059.21 296.627 3062.66 295.764 3068.33 294.284C3074.01 292.804 3077.83 291.447 3079.8 290.214C3083.75 287.994 3086.83 283.554 3089.05 276.894C3091.03 272.207 3093.37 264.684 3096.08 254.324C3098.8 243.964 3100.4 237.797 3100.89 235.824H3122.72L3123.46 289.104H3185.25V313.524H3123.46V427.114C3123.46 441.174 3123.83 451.041 3124.57 456.714C3125.56 462.387 3127.41 466.087 3130.12 467.814C3133.08 469.541 3138.02 470.404 3144.92 470.404C3151.58 470.404 3158.86 469.541 3166.75 467.814C3174.89 466.087 3181.18 464.237 3185.62 462.264L3191.17 478.914C3185.25 483.354 3175.63 487.671 3162.31 491.864C3149.24 496.057 3137.28 498.154 3126.42 498.154ZM3214.57 476.324L3242.32 474.104V317.594L3215.68 310.934V290.954L3266.74 284.294H3267.48L3275.62 290.954V297.614L3274.51 326.474H3275.62C3278.08 322.281 3282.52 316.854 3288.94 310.194C3295.35 303.534 3303.61 297.491 3313.73 292.064C3323.84 286.391 3334.82 283.554 3346.66 283.554C3351.59 283.554 3355.66 284.171 3358.87 285.404V326.844C3357.14 325.611 3354.3 324.501 3350.36 323.514C3346.66 322.281 3342.46 321.664 3337.78 321.664C3317.3 321.664 3298.31 327.954 3280.8 340.534V473.734L3327.79 476.694V494.454H3214.57V476.324ZM3551.64 497.784C3544.73 497.784 3539.55 496.427 3536.1 493.714C3532.89 491.001 3531.29 486.561 3531.29 480.394V467.814C3523.15 475.954 3512.91 483.107 3500.58 489.274C3488.49 495.441 3476.28 498.524 3463.95 498.524C3441.01 498.524 3424.73 492.357 3415.11 480.024C3405.49 467.691 3400.68 447.341 3400.68 418.974V311.674L3379.96 305.754V289.474L3431.76 284.664H3432.13L3439.16 289.104V416.014C3439.16 430.321 3440.15 441.544 3442.12 449.684C3444.34 457.577 3448.04 463.497 3453.22 467.444C3458.65 471.144 3466.42 472.994 3476.53 472.994C3486.4 472.994 3495.65 470.897 3504.28 466.704C3512.91 462.511 3520.44 457.577 3526.85 451.904V311.674L3500.21 305.754V289.474L3556.45 284.664H3556.82L3565.33 289.104V475.584H3587.53L3587.16 492.234C3580.25 493.961 3574.21 495.317 3569.03 496.304C3564.1 497.291 3558.3 497.784 3551.64 497.784ZM3660.73 252.104C3652.84 252.104 3646.92 249.884 3642.97 245.444C3639.02 241.004 3637.05 235.331 3637.05 228.424C3637.05 220.531 3639.39 213.994 3644.08 208.814C3649.01 203.634 3655.67 201.044 3664.06 201.044C3672.45 201.044 3678.61 203.264 3682.56 207.704C3686.51 212.144 3688.48 217.817 3688.48 224.724C3688.48 233.111 3686.01 239.771 3681.08 244.704C3676.39 249.637 3669.73 252.104 3661.1 252.104H3660.73ZM3645.93 317.594L3617.81 310.934V291.324L3675.16 284.294H3675.9L3684.41 290.954V473.364L3714.01 476.324V494.454H3615.96V476.324L3645.93 472.994V317.594ZM3774.69 464.854C3777.16 468.554 3782.34 471.884 3790.23 474.844C3798.37 477.804 3806.88 479.284 3815.76 479.284C3829.82 479.284 3840.18 476.571 3846.84 471.144C3853.5 465.717 3856.83 458.194 3856.83 448.574C3856.83 441.914 3854.74 436.117 3850.54 431.184C3846.35 426.251 3840.43 421.934 3832.78 418.234C3825.38 414.287 3814.65 409.601 3800.59 404.174C3781.6 397.021 3767.66 388.511 3758.78 378.644C3750.15 368.531 3745.83 355.334 3745.83 339.054C3745.83 328.201 3749.04 318.704 3755.45 310.564C3762.11 302.424 3771.12 296.134 3782.46 291.694C3794.06 287.007 3806.88 284.664 3820.94 284.664C3832.29 284.664 3842.16 285.527 3850.54 287.254C3859.18 288.981 3866.08 290.707 3871.26 292.434C3876.44 294.161 3879.9 295.271 3881.62 295.764V341.644H3859.05L3851.65 314.264C3850.17 311.304 3846.23 308.837 3839.81 306.864C3833.4 304.644 3826.25 303.534 3818.35 303.534C3807.25 303.534 3798.25 306.001 3791.34 310.934C3784.68 315.867 3781.35 322.527 3781.35 330.914C3781.35 338.314 3783.08 344.481 3786.53 349.414C3790.23 354.101 3794.8 357.924 3800.22 360.884C3805.65 363.844 3813.05 367.297 3822.42 371.244L3829.82 374.204C3843.64 379.631 3854.86 384.811 3863.49 389.744C3872.13 394.677 3879.28 401.214 3884.95 409.354C3890.87 417.247 3893.83 426.991 3893.83 438.584C3893.83 456.837 3886.68 471.391 3872.37 482.244C3858.31 493.097 3838.95 498.524 3814.28 498.524C3802.2 498.524 3789.49 496.921 3776.17 493.714C3763.1 490.261 3752.37 486.807 3743.98 483.354V435.994H3768.03L3774.69 464.854ZM3926.72 476.324L3949.29 472.994V317.594L3922.65 310.934V290.954L3975.56 284.294L3982.22 289.104L3984.44 303.904L3984.07 315.744C3992.7 307.851 4004.42 300.697 4019.22 294.284C4034.27 287.624 4047.71 284.294 4059.55 284.294C4072.87 284.294 4083.6 286.514 4091.74 290.954C4099.88 295.394 4106.05 302.301 4110.24 311.674C4118.13 305.014 4129.11 298.847 4143.17 293.174C4157.48 287.254 4170.8 284.294 4183.13 284.294C4198.42 284.294 4210.39 287.254 4219.02 293.174C4227.65 298.847 4233.7 307.851 4237.15 320.184C4240.85 332.271 4242.7 348.551 4242.7 369.024V472.994L4269.34 476.324V494.454H4181.28V476.324L4204.22 472.994V370.134C4204.22 355.827 4203.11 344.481 4200.89 336.094C4198.92 327.461 4194.97 321.047 4189.05 316.854C4183.38 312.661 4175.11 310.564 4164.26 310.564C4156.12 310.564 4147.49 312.414 4138.36 316.114C4129.23 319.567 4121.46 323.761 4115.05 328.694C4117.27 338.314 4118.38 352.004 4118.38 369.764V472.994L4144.65 476.324V494.454H4055.11V476.324L4079.53 472.994V369.394C4079.53 354.594 4078.54 343.124 4076.57 334.984C4074.84 326.844 4071.39 320.801 4066.21 316.854C4061.03 312.661 4053.14 310.564 4042.53 310.564C4033.65 310.564 4024.15 312.784 4014.04 317.224C4004.17 321.664 3995.54 326.844 3988.14 332.764V472.994L4012.93 476.324V494.454H3926.72V476.324ZM1062.92 683.434H1129.52L1212.4 931.334L1232.75 935.034V959.454H1116.2V935.034L1142.47 931.334L1129.89 886.934H1041.46L1028.88 931.704L1057.74 935.034V959.454H959.317L958.947 935.034L980.407 930.964L1062.92 683.434ZM1090.3 747.814L1084.75 721.914L1078.83 748.184L1048.86 858.444H1122.12L1090.3 747.814ZM1409.99 963.154C1401.11 963.154 1394.7 961.304 1390.75 957.604C1386.8 953.657 1384.83 947.984 1384.83 940.584V932.444C1378.91 940.584 1370.03 947.861 1358.19 954.274C1346.35 960.441 1334.39 963.524 1322.3 963.524C1298.13 963.524 1280.86 957.604 1270.5 945.764C1260.39 933.677 1255.33 913.574 1255.33 885.454V782.594L1237.94 777.784V754.104L1307.5 749.294H1307.87L1316.01 754.474V886.934C1316.01 902.967 1317.98 914.191 1321.93 920.604C1325.88 926.771 1332.91 929.854 1343.02 929.854C1356.83 929.854 1368.43 925.167 1377.8 915.794V782.594L1354.86 777.044V754.104L1428.12 749.294H1429.23L1438.11 754.474V933.924H1457.72V957.604C1449.33 959.331 1441.56 960.687 1434.41 961.674C1427.5 962.661 1419.36 963.154 1409.99 963.154ZM1527.48 928.744C1529.21 931.457 1533.16 933.924 1539.32 936.144C1545.74 938.364 1552.15 939.474 1558.56 939.474C1568.68 939.474 1576.32 937.377 1581.5 933.184C1586.93 928.744 1589.64 923.071 1589.64 916.164C1589.64 908.764 1586.19 902.721 1579.28 898.034C1572.38 893.101 1561.03 887.181 1545.24 880.274L1531.18 873.984C1515.15 866.831 1503.06 858.197 1494.92 848.084C1487.03 837.724 1483.08 824.651 1483.08 808.864C1483.08 797.517 1486.41 787.404 1493.07 778.524C1499.73 769.397 1509.35 762.244 1521.93 757.064C1534.51 751.884 1549.31 749.294 1566.33 749.294C1578.17 749.294 1588.41 750.034 1597.04 751.514C1605.68 752.994 1614.43 754.844 1623.31 757.064C1629.23 758.791 1633.67 759.777 1636.63 760.024V810.344H1603.7L1594.08 781.854C1592.85 779.634 1589.89 777.661 1585.2 775.934C1580.52 773.961 1575.21 772.974 1569.29 772.974C1559.92 772.974 1552.52 775.071 1547.09 779.264C1541.67 783.211 1538.95 788.637 1538.95 795.544C1538.95 803.437 1542.04 809.727 1548.2 814.414C1554.37 818.854 1564.24 824.157 1577.8 830.324L1585.57 833.654C1605.55 842.041 1621.22 851.167 1632.56 861.034C1643.91 870.654 1649.58 883.974 1649.58 900.994C1649.58 919.247 1642.31 934.294 1627.75 946.134C1613.2 957.727 1591.74 963.524 1563.37 963.524C1550.3 963.524 1538.71 962.414 1528.59 960.194C1518.48 958.221 1507.38 955.507 1495.29 952.054L1483.08 948.724V899.514H1518.23L1527.48 928.744ZM1739.24 962.784C1722.96 962.784 1710.88 959.084 1702.98 951.684C1695.34 944.037 1691.51 932.321 1691.51 916.534V784.814H1668.94V763.354L1676.34 760.394C1682.26 758.421 1687.44 756.324 1691.88 754.104C1696.82 749.417 1700.76 743.251 1703.72 735.604C1707.42 726.724 1711.49 714.267 1715.93 698.234H1750.34L1752.56 753.734H1805.47V784.814H1753.3V882.864C1753.3 896.431 1753.67 905.927 1754.41 911.354C1755.15 916.781 1756.51 920.357 1758.48 922.084C1760.7 923.564 1764.65 924.304 1770.32 924.304C1781.92 924.304 1792.89 922.331 1803.25 918.384L1811.02 941.694C1804.12 947.367 1793.88 952.301 1780.31 956.494C1766.75 960.687 1753.06 962.784 1739.24 962.784ZM1828.12 935.034L1850.69 931.704V792.584L1828.86 785.924V757.064L1890.28 748.924H1891.39L1901.75 756.694V765.574L1900.64 796.284H1901.75C1903.47 790.611 1907.42 784.074 1913.59 776.674C1919.75 769.027 1927.52 762.491 1936.9 757.064C1946.52 751.391 1956.88 748.554 1967.98 748.554C1974.39 748.554 1979.32 749.417 1982.78 751.144V815.524C1978.83 812.564 1974.51 810.221 1969.83 808.494C1965.39 806.767 1959.59 805.904 1952.44 805.904C1943.56 805.904 1935.54 807.137 1928.39 809.604C1921.23 811.824 1915.56 814.414 1911.37 817.374V931.704L1952.07 935.404V959.454H1828.12V935.034ZM2000.34 900.254C2000.34 878.547 2011.32 861.897 2033.27 850.304C2055.47 838.711 2084.58 832.791 2120.59 832.544V825.144C2120.59 816.264 2119.6 809.234 2117.63 804.054C2115.66 798.874 2112.08 795.051 2106.9 792.584C2101.72 789.871 2094.07 788.514 2083.96 788.514C2071.87 788.514 2061.02 789.994 2051.4 792.954C2042.03 795.667 2032.16 799.367 2021.8 804.054L2009.22 777.414C2013.17 774.207 2019.58 770.384 2028.46 765.944C2037.34 761.257 2047.95 757.311 2060.28 754.104C2072.86 750.651 2085.93 748.924 2099.5 748.924C2119.23 748.924 2134.65 751.514 2145.75 756.694C2157.1 761.874 2165.11 769.891 2169.8 780.744C2174.73 791.597 2177.2 806.397 2177.2 825.144V935.034H2196.44V958.344C2190.77 959.577 2182.87 960.811 2172.76 962.044C2162.65 963.277 2154.01 963.894 2146.86 963.894C2137.49 963.894 2131.2 962.537 2127.99 959.824C2125.03 957.111 2123.55 951.684 2123.55 943.544V935.034C2117.38 942.434 2109.12 949.094 2098.76 955.014C2088.4 960.687 2076.44 963.524 2062.87 963.524C2051.28 963.524 2040.67 961.057 2031.05 956.124C2021.68 950.944 2014.15 943.667 2008.48 934.294C2003.05 924.674 2000.34 913.327 2000.34 900.254ZM2091.73 929.484C2096.17 929.484 2101.1 928.251 2106.53 925.784C2111.96 923.071 2116.64 919.864 2120.59 916.164V857.334C2101.35 857.334 2087.04 860.787 2077.67 867.694C2068.54 874.601 2063.98 883.481 2063.98 894.334C2063.98 905.434 2066.45 914.067 2071.38 920.234C2076.31 926.401 2083.1 929.484 2091.73 929.484ZM2235.78 692.314L2209.88 687.504V664.934L2283.88 656.054H2284.99L2295.72 663.824V931.704L2319.77 935.034V959.454H2212.1V935.034L2235.78 931.704V692.314ZM2388.86 721.914C2379.24 721.914 2371.47 719.077 2365.55 713.404C2359.63 707.731 2356.67 700.454 2356.67 691.574C2356.67 681.214 2359.88 672.704 2366.29 666.044C2372.95 659.384 2381.83 656.054 2392.93 656.054C2404.03 656.054 2412.54 658.891 2418.46 664.564C2424.38 670.237 2427.34 677.514 2427.34 686.394C2427.34 697.001 2424.01 705.634 2417.35 712.294C2410.69 718.707 2401.32 721.914 2389.23 721.914H2388.86ZM2366.29 792.584L2341.5 785.554V757.804L2415.5 748.924H2416.24L2427.71 756.694V931.704L2449.91 935.034V959.454H2343.35V935.034L2366.29 931.704V792.584ZM2470.43 900.254C2470.43 878.547 2481.41 861.897 2503.36 850.304C2525.56 838.711 2554.67 832.791 2590.68 832.544V825.144C2590.68 816.264 2589.69 809.234 2587.72 804.054C2585.75 798.874 2582.17 795.051 2576.99 792.584C2571.81 789.871 2564.16 788.514 2554.05 788.514C2541.96 788.514 2531.11 789.994 2521.49 792.954C2512.12 795.667 2502.25 799.367 2491.89 804.054L2479.31 777.414C2483.26 774.207 2489.67 770.384 2498.55 765.944C2507.43 761.257 2518.04 757.311 2530.37 754.104C2542.95 750.651 2556.02 748.924 2569.59 748.924C2589.32 748.924 2604.74 751.514 2615.84 756.694C2627.19 761.874 2635.2 769.891 2639.89 780.744C2644.82 791.597 2647.29 806.397 2647.29 825.144V935.034H2666.53V958.344C2660.86 959.577 2652.96 960.811 2642.85 962.044C2632.74 963.277 2624.1 963.894 2616.95 963.894C2607.58 963.894 2601.29 962.537 2598.08 959.824C2595.12 957.111 2593.64 951.684 2593.64 943.544V935.034C2587.47 942.434 2579.21 949.094 2568.85 955.014C2558.49 960.687 2546.53 963.524 2532.96 963.524C2521.37 963.524 2510.76 961.057 2501.14 956.124C2491.77 950.944 2484.24 943.667 2478.57 934.294C2473.14 924.674 2470.43 913.327 2470.43 900.254ZM2561.82 929.484C2566.26 929.484 2571.19 928.251 2576.62 925.784C2582.05 923.071 2586.73 919.864 2590.68 916.164V857.334C2571.44 857.334 2557.13 860.787 2547.76 867.694C2538.63 874.601 2534.07 883.481 2534.07 894.334C2534.07 905.434 2536.54 914.067 2541.47 920.234C2546.4 926.401 2553.19 929.484 2561.82 929.484Z" fill="black"/>
<defs>
<linearGradient id="paint0_linear_4_35" x1="466" y1="1095" x2="466" y2="1007.5" gradientUnits="userSpaceOnUse">
<stop stop-color="#0A879D"/>
<stop offset="1" stop-color="#195466"/>
</linearGradient>
<linearGradient id="paint1_linear_4_35" x1="465" y1="957.5" x2="465" y2="857" gradientUnits="userSpaceOnUse">
<stop stop-color="#0A879D"/>
<stop offset="1" stop-color="#042F37"/>
</linearGradient>
<linearGradient id="paint2_linear_4_35" x1="343.5" y1="580" x2="540.5" y2="407" gradientUnits="userSpaceOnUse">
<stop stop-color="#0A879D"/>
<stop offset="1" stop-color="#042F37"/>
</linearGradient>
</defs>
</svg>
