<svg width="5469" height="1192" viewBox="0 0 5469 1192" fill="none" xmlns="http://www.w3.org/2000/svg">
<path fill-rule="evenodd" clip-rule="evenodd" d="M577.665 1009.82C593.265 1021.19 607.084 1034.8 618.669 1053.32C626.911 1066.5 623.842 1082.58 610.668 1090.82C597.907 1098.8 580.042 1096.67 571.519 1084.47L570.722 1083.26L569.164 1080.82C552.9 1056.03 529.798 1043.52 496.857 1036.12C466.072 1029.2 426.273 1026.82 372.034 1027.46C362.182 1027.65 352.021 1027.82 341.553 1027.97C326.05 1028.2 313.282 1014.84 313.004 999.336C312.727 983.831 325.612 971.007 341.114 970.682C387.501 969.71 404.396 969.84 450.784 970.672C484.829 971.283 546.143 986.846 577.665 1009.82Z" fill="url(#paint0_linear_4_43)"/>
<path fill-rule="evenodd" clip-rule="evenodd" d="M434.618 603.652L434.117 601.675L430.873 601.798C427.913 601.905 425.855 601.96 425.118 601.945C310.161 599.671 194.707 482.581 252.294 331.63C345.002 325.449 411.636 365.398 456.103 424.14C465.377 409.109 476.412 395.556 488.761 385.944C567.609 324.576 605.701 331.629 640.265 331.63C686.228 448.666 623.603 572.371 493.738 597.695C498.946 616.804 439.565 622.831 434.618 603.652ZM296.029 387.354C290.351 472.518 344.349 534.551 426.078 546.71C425.456 537.019 427.118 529.498 427.118 518.029C427.118 515.052 424.743 505.667 423.755 502.276C401.809 426.932 367.098 404.952 296.029 387.354ZM598.647 387.354C494.953 416.98 483.529 503.544 483.529 519.672C483.529 528.011 481.782 539.845 482.248 547.218C526.949 535.778 606.41 495.857 598.647 387.354Z" fill="url(#paint1_linear_4_43)"/>
<path fill-rule="evenodd" clip-rule="evenodd" d="M568.062 879.767C578.771 883.137 588.799 890.439 596.668 897.405C611.936 910.923 622.389 927.704 622.389 946.492C622.389 955.486 620.169 965.892 616.299 975.197C612.114 985.26 606.058 991.781 598.309 997.306C591.729 1002 586.152 1006.71 577.667 1009.7C521.146 1029.62 525.355 1025.53 372.036 1027.34C362.184 1027.53 352.023 1027.7 341.556 1027.85C326.052 1028.08 313.284 1014.72 313.007 999.219C312.73 983.713 325.614 970.889 341.116 970.564C387.503 969.593 404.399 969.723 450.786 970.555C459.98 970.72 564.197 968.703 564.198 948.454C564.198 936.394 538.46 929.235 528.172 926.904C491.933 918.694 432.754 916.155 341.179 916.293C325.787 916.315 313.231 903.961 313.003 888.567C312.776 873.174 325.73 865.434 341.116 865C417.112 865 521.146 865 568.062 879.767Z" fill="url(#paint2_linear_4_43)"/>
<path fill-rule="evenodd" clip-rule="evenodd" d="M445.53 96C600.184 96.0008 760.041 219 760.041 413.622C760.041 517 705.438 603 690.034 618.274C657.031 651.001 630.253 711.001 630.253 799.438C630.253 809.501 623.858 824.418 622.214 827.575C609.488 852.013 587.248 866.637 562.916 880.564C504.5 914 367.51 917.043 336.033 917.091C320.641 917.113 308.086 904.758 307.857 889.365C307.63 873.972 320.585 859.232 335.971 858.798C408.322 858.798 458.879 853.089 499.515 843.001C554.02 829.47 572.938 808.002 573.521 796.501C577.909 710.001 592.188 675.309 608.025 638.501C626.924 594.58 703.769 543.501 703.769 410.622C703.769 264.5 577.522 151.282 445.53 151.282C310.496 151.282 182.166 258.505 184.269 417.315C185.482 509 231.2 559.6 257.857 594.466C268.459 608.333 278.566 630.715 285.715 648.282C293.081 666.384 298.165 684.106 299.934 690.961C304.085 707.052 309.496 714.001 313.996 719.001C317.462 722.852 323.085 726.242 325.497 727.501C329.036 729.348 340.999 732.164 348.04 732.164H436.999C457.599 732.164 476.475 719.001 468.614 690.961C461.103 664.169 444.419 645.867 433.802 604.708C418.995 546.291 423.644 476.485 455.287 425.196C464.561 410.165 475.596 396.612 487.945 387C566.793 325.632 604.885 332.686 639.449 332.686C658.016 379.964 613 383.008 597.5 388C482 425.196 470.5 519 492.922 598.751C506.469 646.937 528.701 665.832 528.701 693.841C528.701 727.501 521.337 739.659 508.95 752.387C488.918 772.97 459.116 788.444 429.944 788.445C399.917 788.446 353.077 788.445 352.958 788.445C347.562 788.445 330.497 787.001 324.889 786.138C321.334 785.59 308.027 781.488 304.671 779.736C297.938 776.222 290.522 773.199 283.234 766.621C268.555 753.371 253.704 737.152 246.447 709.023C245.623 705.827 239.654 685.846 232.596 668.502C221.404 641.001 208.985 622.001 192.983 603.001C174.034 580.501 128 509.001 128 417.929C128 228.989 274.702 95.9993 445.53 96Z" fill="#6CBD43"/>
<path d="M1013.77 242.804L983.431 238.364V219.864H1171.76L1176.94 277.214H1155.85L1145.12 241.324L1053.36 239.104V343.444L1115.15 342.334L1120.33 311.624H1140.68V396.724H1120.33L1115.15 364.904L1053.36 363.794V474.054L1157.7 470.354L1177.31 423.734L1199.14 430.394L1188.41 494.774H983.061V476.644L1013.77 472.944V242.804ZM1253.3 313.844H1218.52V296.824L1253.3 289.794V272.404C1253.3 257.111 1257.24 243.051 1265.14 230.224C1273.28 217.398 1283.76 207.284 1296.59 199.884C1309.66 192.238 1323.47 188.414 1338.03 188.414C1346.41 188.414 1353.69 189.524 1359.86 191.744V228.744C1357.64 226.771 1353.2 224.921 1346.54 223.194C1340.12 221.221 1332.97 220.234 1325.08 220.234C1313.48 220.234 1304.97 223.318 1299.55 229.484C1294.37 235.404 1291.78 245.764 1291.78 260.564V289.794H1342.84V313.844H1291.78V473.684L1332.85 476.644V494.774H1221.85V476.644L1253.3 473.314V313.844ZM1401.3 313.844H1366.52V296.824L1401.3 289.794V272.404C1401.3 257.111 1405.24 243.051 1413.14 230.224C1421.28 217.398 1431.76 207.284 1444.59 199.884C1457.66 192.238 1471.47 188.414 1486.03 188.414C1494.41 188.414 1501.69 189.524 1507.86 191.744V228.744C1505.64 226.771 1501.2 224.921 1494.54 223.194C1488.12 221.221 1480.97 220.234 1473.08 220.234C1461.48 220.234 1452.97 223.318 1447.55 229.484C1442.37 235.404 1439.78 245.764 1439.78 260.564V289.794H1490.84V313.844H1439.78V473.684L1480.85 476.644V494.774H1369.85V476.644L1401.3 473.314V313.844ZM1610.64 498.844C1580.8 498.844 1557.98 489.101 1542.19 469.614C1526.65 450.128 1518.88 424.104 1518.88 391.544C1518.88 370.084 1522.95 351.214 1531.09 334.934C1539.23 318.654 1550.58 306.074 1565.13 297.194C1579.93 288.314 1596.71 283.874 1615.45 283.874C1638.39 283.874 1656.15 290.288 1668.73 303.114C1681.56 315.694 1688.34 333.824 1689.08 357.504C1689.08 372.551 1688.22 384.021 1686.49 391.914H1559.21C1559.71 416.334 1565.38 436.068 1576.23 451.114C1587.09 465.914 1602.5 473.314 1622.48 473.314C1632.35 473.314 1642.59 471.588 1653.19 468.134C1664.05 464.434 1672.43 460.118 1678.35 455.184L1685.38 471.464C1678.23 478.864 1667.62 485.278 1653.56 490.704C1639.5 496.131 1625.2 498.844 1610.64 498.844ZM1648.38 372.304C1649.12 367.124 1649.49 361.821 1649.49 356.394C1649.25 340.361 1645.79 327.781 1639.13 318.654C1632.72 309.281 1622.48 304.594 1608.42 304.594C1594.12 304.594 1582.65 309.774 1574.01 320.134C1565.63 330.494 1560.82 347.884 1559.58 372.304H1648.38ZM1716.44 393.394C1716.44 372.921 1720.39 354.421 1728.28 337.894C1736.42 321.368 1748.26 308.294 1763.8 298.674C1779.59 288.808 1798.46 283.874 1820.41 283.874C1831.02 283.874 1840.15 284.861 1847.79 286.834C1855.44 288.808 1864.57 291.521 1875.17 294.974L1873.69 351.954H1849.64L1841.5 314.214C1840.02 307.308 1830.65 303.854 1813.38 303.854C1796.12 303.854 1782.43 310.884 1772.31 324.944C1762.45 338.758 1757.51 358.491 1757.51 384.144C1757.51 413.251 1763.06 435.451 1774.16 450.744C1785.51 465.791 1800.19 473.314 1818.19 473.314C1828.55 473.314 1838.3 471.711 1847.42 468.504C1856.8 465.298 1864.81 461.474 1871.47 457.034L1878.5 471.834C1871.84 478.741 1861.98 485.031 1848.9 490.704C1836.08 496.131 1823 498.844 1809.68 498.844C1789.46 498.844 1772.31 494.281 1758.25 485.154C1744.44 476.028 1733.96 463.571 1726.8 447.784C1719.9 431.751 1716.44 413.621 1716.44 393.394ZM1973.85 498.474C1959.79 498.474 1949.31 495.268 1942.4 488.854C1935.49 482.441 1932.04 471.464 1932.04 455.924V313.844H1905.4V297.194C1906.63 296.948 1910.09 296.084 1915.76 294.604C1921.43 293.124 1925.26 291.768 1927.23 290.534C1931.18 288.314 1934.26 283.874 1936.48 277.214C1938.45 272.528 1940.8 265.004 1943.51 254.644C1946.22 244.284 1947.83 238.118 1948.32 236.144H1970.15L1970.89 289.424H2032.68V313.844H1970.89V427.434C1970.89 441.494 1971.26 451.361 1972 457.034C1972.99 462.708 1974.84 466.408 1977.55 468.134C1980.51 469.861 1985.44 470.724 1992.35 470.724C1999.01 470.724 2006.29 469.861 2014.18 468.134C2022.32 466.408 2028.61 464.558 2033.05 462.584L2038.6 479.234C2032.68 483.674 2023.06 487.991 2009.74 492.184C1996.67 496.378 1984.7 498.474 1973.85 498.474ZM2104.92 252.424C2097.02 252.424 2091.1 250.204 2087.16 245.764C2083.21 241.324 2081.24 235.651 2081.24 228.744C2081.24 220.851 2083.58 214.314 2088.27 209.134C2093.2 203.954 2099.86 201.364 2108.25 201.364C2116.63 201.364 2122.8 203.584 2126.75 208.024C2130.69 212.464 2132.67 218.138 2132.67 225.044C2132.67 233.431 2130.2 240.091 2125.27 245.024C2120.58 249.958 2113.92 252.424 2105.29 252.424H2104.92ZM2090.12 317.914L2062 311.254V291.644L2119.35 284.614H2120.09L2128.6 291.274V473.684L2158.2 476.644V494.774H2060.15V476.644L2090.12 473.314V317.914ZM2167.45 289.424H2253.29V306.814L2227.02 311.624L2264.39 418.184L2279.93 465.174L2293.25 419.664L2330.62 311.624L2305.46 306.814V289.424H2380.57V306.814L2361.33 311.624L2289.92 497.734H2258.47L2184.1 311.624L2167.45 306.814V289.424ZM2485.78 498.844C2455.93 498.844 2433.12 489.101 2417.33 469.614C2401.79 450.128 2394.02 424.104 2394.02 391.544C2394.02 370.084 2398.09 351.214 2406.23 334.934C2414.37 318.654 2425.72 306.074 2440.27 297.194C2455.07 288.314 2471.84 283.874 2490.59 283.874C2513.53 283.874 2531.29 290.288 2543.87 303.114C2556.7 315.694 2563.48 333.824 2564.22 357.504C2564.22 372.551 2563.36 384.021 2561.63 391.914H2434.35C2434.84 416.334 2440.52 436.068 2451.37 451.114C2462.22 465.914 2477.64 473.314 2497.62 473.314C2507.49 473.314 2517.72 471.588 2528.33 468.134C2539.18 464.434 2547.57 460.118 2553.49 455.184L2560.52 471.464C2553.37 478.864 2542.76 485.278 2528.7 490.704C2514.64 496.131 2500.33 498.844 2485.78 498.844ZM2523.52 372.304C2524.26 367.124 2524.63 361.821 2524.63 356.394C2524.38 340.361 2520.93 327.781 2514.27 318.654C2507.86 309.281 2497.62 304.594 2483.56 304.594C2469.25 304.594 2457.78 309.774 2449.15 320.134C2440.76 330.494 2435.95 347.884 2434.72 372.304H2523.52ZM2774.47 217.644H2815.17L2905.08 472.944L2928.02 476.644V494.774H2830.34V476.644L2861.05 472.944L2843.66 418.184H2735.62L2718.23 472.944L2750.05 476.644V494.774H2662.36V476.644L2685.3 472.944L2774.47 217.644ZM2797.78 276.844L2788.53 244.284L2779.65 277.584L2742.28 396.354H2836.63L2797.78 276.844ZM2967.02 218.754L2937.05 214.684V198.774L2996.62 191.744H2997.36L3005.5 197.294V473.684L3036.95 476.644V494.774H2937.05V476.644L2967.02 473.314V218.754ZM3126.49 498.474C3112.43 498.474 3101.95 495.268 3095.04 488.854C3088.13 482.441 3084.68 471.464 3084.68 455.924V313.844H3058.04V297.194C3059.27 296.948 3062.73 296.084 3068.4 294.604C3074.07 293.124 3077.9 291.768 3079.87 290.534C3083.82 288.314 3086.9 283.874 3089.12 277.214C3091.09 272.528 3093.44 265.004 3096.15 254.644C3098.86 244.284 3100.47 238.118 3100.96 236.144H3122.79L3123.53 289.424H3185.32V313.844H3123.53V427.434C3123.53 441.494 3123.9 451.361 3124.64 457.034C3125.63 462.708 3127.48 466.408 3130.19 468.134C3133.15 469.861 3138.08 470.724 3144.99 470.724C3151.65 470.724 3158.93 469.861 3166.82 468.134C3174.96 466.408 3181.25 464.558 3185.69 462.584L3191.24 479.234C3185.32 483.674 3175.7 487.991 3162.38 492.184C3149.31 496.378 3137.34 498.474 3126.49 498.474ZM3214.63 476.644L3242.38 474.424V317.914L3215.74 311.254V291.274L3266.8 284.614H3267.54L3275.68 291.274V297.934L3274.57 326.794H3275.68C3278.15 322.601 3282.59 317.174 3289 310.514C3295.42 303.854 3303.68 297.811 3313.79 292.384C3323.91 286.711 3334.88 283.874 3346.72 283.874C3351.66 283.874 3355.73 284.491 3358.93 285.724V327.164C3357.21 325.931 3354.37 324.821 3350.42 323.834C3346.72 322.601 3342.53 321.984 3337.84 321.984C3317.37 321.984 3298.38 328.274 3280.86 340.854V474.054L3327.85 477.014V494.774H3214.63V476.644ZM3551.71 498.104C3544.8 498.104 3539.62 496.748 3536.17 494.034C3532.96 491.321 3531.36 486.881 3531.36 480.714V468.134C3523.22 476.274 3512.98 483.428 3500.65 489.594C3488.56 495.761 3476.35 498.844 3464.02 498.844C3441.08 498.844 3424.8 492.678 3415.18 480.344C3405.56 468.011 3400.75 447.661 3400.75 419.294V311.994L3380.03 306.074V289.794L3431.83 284.984H3432.2L3439.23 289.424V416.334C3439.23 430.641 3440.21 441.864 3442.19 450.004C3444.41 457.898 3448.11 463.818 3453.29 467.764C3458.71 471.464 3466.48 473.314 3476.6 473.314C3486.46 473.314 3495.71 471.218 3504.35 467.024C3512.98 462.831 3520.5 457.898 3526.92 452.224V311.994L3500.28 306.074V289.794L3556.52 284.984H3556.89L3565.4 289.424V475.904H3587.6L3587.23 492.554C3580.32 494.281 3574.28 495.638 3569.1 496.624C3564.16 497.611 3558.37 498.104 3551.71 498.104ZM3660.79 252.424C3652.9 252.424 3646.98 250.204 3643.03 245.764C3639.09 241.324 3637.11 235.651 3637.11 228.744C3637.11 220.851 3639.46 214.314 3644.14 209.134C3649.08 203.954 3655.74 201.364 3664.12 201.364C3672.51 201.364 3678.68 203.584 3682.62 208.024C3686.57 212.464 3688.54 218.138 3688.54 225.044C3688.54 233.431 3686.08 240.091 3681.14 245.024C3676.46 249.958 3669.8 252.424 3661.16 252.424H3660.79ZM3645.99 317.914L3617.87 311.254V291.644L3675.22 284.614H3675.96L3684.47 291.274V473.684L3714.07 476.644V494.774H3616.02V476.644L3645.99 473.314V317.914ZM3774.76 465.174C3777.22 468.874 3782.4 472.204 3790.3 475.164C3798.44 478.124 3806.95 479.604 3815.83 479.604C3829.89 479.604 3840.25 476.891 3846.91 471.464C3853.57 466.038 3856.9 458.514 3856.9 448.894C3856.9 442.234 3854.8 436.438 3850.61 431.504C3846.41 426.571 3840.49 422.254 3832.85 418.554C3825.45 414.608 3814.72 409.921 3800.66 404.494C3781.66 397.341 3767.73 388.831 3758.85 378.964C3750.21 368.851 3745.9 355.654 3745.9 339.374C3745.9 328.521 3749.1 319.024 3755.52 310.884C3762.18 302.744 3771.18 296.454 3782.53 292.014C3794.12 287.328 3806.95 284.984 3821.01 284.984C3832.35 284.984 3842.22 285.848 3850.61 287.574C3859.24 289.301 3866.15 291.028 3871.33 292.754C3876.51 294.481 3879.96 295.591 3881.69 296.084V341.964H3859.12L3851.72 314.584C3850.24 311.624 3846.29 309.158 3839.88 307.184C3833.46 304.964 3826.31 303.854 3818.42 303.854C3807.32 303.854 3798.31 306.321 3791.41 311.254C3784.75 316.188 3781.42 322.848 3781.42 331.234C3781.42 338.634 3783.14 344.801 3786.6 349.734C3790.3 354.421 3794.86 358.244 3800.29 361.204C3805.71 364.164 3813.11 367.618 3822.49 371.564L3829.89 374.524C3843.7 379.951 3854.92 385.131 3863.56 390.064C3872.19 394.998 3879.34 401.534 3885.02 409.674C3890.94 417.568 3893.9 427.311 3893.9 438.904C3893.9 457.158 3886.74 471.711 3872.44 482.564C3858.38 493.418 3839.01 498.844 3814.35 498.844C3802.26 498.844 3789.56 497.241 3776.24 494.034C3763.16 490.581 3752.43 487.128 3744.05 483.674V436.314H3768.1L3774.76 465.174ZM3926.78 476.644L3949.35 473.314V317.914L3922.71 311.254V291.274L3975.62 284.614L3982.28 289.424L3984.5 304.224L3984.13 316.064C3992.77 308.171 4004.48 301.018 4019.28 294.604C4034.33 287.944 4047.77 284.614 4059.61 284.614C4072.93 284.614 4083.66 286.834 4091.8 291.274C4099.94 295.714 4106.11 302.621 4110.3 311.994C4118.2 305.334 4129.17 299.168 4143.23 293.494C4157.54 287.574 4170.86 284.614 4183.19 284.614C4198.49 284.614 4210.45 287.574 4219.08 293.494C4227.72 299.168 4233.76 308.171 4237.21 320.504C4240.91 332.591 4242.76 348.871 4242.76 369.344V473.314L4269.4 476.644V494.774H4181.34V476.644L4204.28 473.314V370.454C4204.28 356.148 4203.17 344.801 4200.95 336.414C4198.98 327.781 4195.03 321.368 4189.11 317.174C4183.44 312.981 4175.18 310.884 4164.32 310.884C4156.18 310.884 4147.55 312.734 4138.42 316.434C4129.3 319.888 4121.53 324.081 4115.11 329.014C4117.33 338.634 4118.44 352.324 4118.44 370.084V473.314L4144.71 476.644V494.774H4055.17V476.644L4079.59 473.314V369.714C4079.59 354.914 4078.61 343.444 4076.63 335.304C4074.91 327.164 4071.45 321.121 4066.27 317.174C4061.09 312.981 4053.2 310.884 4042.59 310.884C4033.71 310.884 4024.22 313.104 4014.1 317.544C4004.24 321.984 3995.6 327.164 3988.2 333.084V473.314L4012.99 476.644V494.774H3926.78V476.644ZM1067.05 683.384H1123.66L1209.13 933.874L1230.59 937.574V959.774H1121.44V937.574L1149.19 933.874L1134.76 885.774H1038.93L1024.5 934.244L1054.47 937.574V959.774H960.121L959.751 937.574L981.951 933.874L1067.05 683.384ZM1092.58 745.914L1085.92 717.054L1078.89 746.284L1045.96 859.874H1127.36L1092.58 745.914ZM1409.36 963.474C1401.22 963.474 1395.3 961.748 1391.6 958.294C1387.9 954.841 1386.05 949.661 1386.05 942.754V932.764C1379.39 940.904 1370.01 948.181 1357.93 954.594C1345.84 960.761 1333.75 963.844 1321.67 963.844C1297.99 963.844 1281.09 957.801 1270.98 945.714C1260.86 933.381 1255.81 913.154 1255.81 885.034V780.694L1237.31 775.514V754.424L1300.21 749.614H1300.58L1307.98 754.794V885.034C1307.98 903.041 1310.2 915.621 1314.64 922.774C1319.08 929.928 1327.34 933.504 1339.43 933.504C1353.98 933.504 1367.55 927.831 1380.13 916.484V780.694L1355.34 775.144V754.424L1422.31 749.614H1423.05L1431.93 754.794V936.834H1452.65L1452.28 957.924C1451.29 958.171 1446.73 959.158 1438.59 960.884C1430.45 962.611 1420.7 963.474 1409.36 963.474ZM1519.86 929.434C1521.84 932.394 1526.28 935.231 1533.18 937.944C1540.34 940.411 1547.49 941.644 1554.64 941.644C1566.24 941.644 1574.87 939.301 1580.54 934.614C1586.46 929.681 1589.42 923.268 1589.42 915.374C1589.42 907.234 1585.85 900.698 1578.69 895.764C1571.54 890.584 1559.45 884.294 1542.43 876.894L1532.07 872.454C1515.05 865.301 1502.35 856.668 1493.96 846.554C1485.58 836.441 1481.38 823.368 1481.38 807.334C1481.38 796.234 1484.71 786.368 1491.37 777.734C1498.03 768.854 1507.41 761.948 1519.49 757.014C1531.58 752.081 1545.52 749.614 1561.3 749.614C1572.9 749.614 1582.76 750.354 1590.9 751.834C1599.29 753.314 1608.05 755.288 1617.17 757.754C1622.11 759.481 1625.81 760.468 1628.27 760.714V809.184H1599.04L1590.53 781.064C1589.05 778.598 1585.72 776.378 1580.54 774.404C1575.36 772.431 1569.44 771.444 1562.78 771.444C1552.67 771.444 1544.53 773.664 1538.36 778.104C1532.44 782.298 1529.48 788.218 1529.48 795.864C1529.48 802.771 1531.58 808.568 1535.77 813.254C1539.97 817.694 1544.53 821.148 1549.46 823.614C1554.4 826.081 1563.52 830.151 1576.84 835.824C1590.16 841.498 1601.14 846.924 1609.77 852.104C1618.65 857.284 1625.93 864.068 1631.6 872.454C1637.52 880.594 1640.48 890.584 1640.48 902.424C1640.48 920.678 1633.33 935.478 1619.02 946.824C1604.72 958.171 1584.12 963.844 1557.23 963.844C1544.65 963.844 1533.31 962.734 1523.19 960.514C1513.33 958.294 1501.86 955.334 1488.78 951.634L1480.64 949.044V900.204H1511.35L1519.86 929.434ZM1732.82 963.104C1717.28 963.104 1705.81 959.528 1698.41 952.374C1691.01 945.221 1687.31 933.874 1687.31 918.334V782.544H1663.26V763.304C1665.23 762.564 1668.81 761.331 1673.99 759.604C1679.17 757.631 1683.12 756.028 1685.83 754.794C1690.02 751.588 1693.6 746.038 1696.56 738.144C1698.78 732.964 1702.85 720.138 1708.77 699.664H1738.37L1739.85 754.054H1796.46V782.544H1740.22V886.514C1740.22 900.328 1740.59 910.071 1741.33 915.744C1742.07 921.418 1743.67 925.118 1746.14 926.844C1748.61 928.324 1752.92 929.064 1759.09 929.064C1765.26 929.064 1771.67 928.448 1778.33 927.214C1784.99 925.734 1790.54 924.008 1794.98 922.034L1802.01 942.754C1795.1 947.934 1784.99 952.621 1771.67 956.814C1758.35 961.008 1745.4 963.104 1732.82 963.104ZM1821.69 937.944L1846.11 934.984V789.204L1822.43 782.544V757.014L1879.78 749.244H1880.89L1890.14 756.644V764.784L1889.03 794.754H1890.14C1891.87 789.821 1895.94 783.778 1902.35 776.624C1908.77 769.224 1916.78 762.811 1926.4 757.384C1936.27 751.711 1946.88 748.874 1958.22 748.874C1963.65 748.874 1968.34 749.614 1972.28 751.094V806.594C1964.88 801.414 1955.88 798.824 1945.27 798.824C1927.27 798.824 1911.6 803.634 1898.28 813.254V934.614L1941.2 937.944V959.774H1821.69V937.944ZM1991.79 902.054C1991.79 879.608 2003.01 862.711 2025.46 851.364C2048.15 840.018 2077.38 834.221 2113.15 833.974V825.464C2113.15 815.351 2112.04 807.458 2109.82 801.784C2107.84 796.111 2104.02 791.918 2098.35 789.204C2092.92 786.244 2084.9 784.764 2074.3 784.764C2062.21 784.764 2051.36 786.368 2041.74 789.574C2032.12 792.534 2022.13 796.481 2011.77 801.414L2000.3 777.734C2004 774.528 2010.16 770.704 2018.8 766.264C2027.68 761.824 2038.16 758.001 2050.25 754.794C2062.33 751.341 2074.79 749.614 2087.62 749.614C2106.61 749.614 2121.41 752.081 2132.02 757.014C2142.87 761.948 2150.64 769.841 2155.33 780.694C2160.01 791.548 2162.36 806.101 2162.36 824.354V937.574H2182.34V958.294C2177.4 959.528 2170.37 960.761 2161.25 961.994C2152.12 963.228 2144.1 963.844 2137.2 963.844C2128.81 963.844 2123.14 962.611 2120.18 960.144C2117.46 957.678 2116.11 952.621 2116.11 944.974V934.984C2109.45 942.384 2100.81 949.044 2090.21 954.964C2079.6 960.884 2067.64 963.844 2054.32 963.844C2042.97 963.844 2032.49 961.501 2022.87 956.814C2013.49 951.881 2005.97 944.851 2000.3 935.724C1994.62 926.351 1991.79 915.128 1991.79 902.054ZM2078 933.134C2083.18 933.134 2089.1 931.654 2095.76 928.694C2102.42 925.488 2108.21 921.664 2113.15 917.224V856.544C2090.95 856.544 2074.3 860.368 2063.2 868.014C2052.34 875.414 2046.92 885.034 2046.92 896.874C2046.92 908.714 2049.63 917.718 2055.06 923.884C2060.73 930.051 2068.38 933.134 2078 933.134ZM2226.89 689.304L2199.51 684.494V664.514L2267.96 656.374H2268.7L2278.69 663.404V934.614L2305.7 937.574V959.774H2200.99V937.574L2226.89 934.244V689.304ZM2375.2 720.384C2366.32 720.384 2359.29 717.794 2354.11 712.614C2348.93 707.434 2346.34 700.774 2346.34 692.634C2346.34 683.261 2349.3 675.491 2355.22 669.324C2361.14 663.158 2369.03 660.074 2378.9 660.074C2388.76 660.074 2396.29 662.788 2401.47 668.214C2406.65 673.394 2409.24 679.931 2409.24 687.824C2409.24 697.691 2406.28 705.584 2400.36 711.504C2394.44 717.424 2386.17 720.384 2375.57 720.384H2375.2ZM2355.59 789.204L2329.32 782.174V757.384L2397.03 749.244H2397.77L2408.13 756.644V934.614L2432.92 937.574V959.774H2329.69V937.574L2355.59 934.244V789.204ZM2455.37 902.054C2455.37 879.608 2466.59 862.711 2489.04 851.364C2511.73 840.018 2540.96 834.221 2576.73 833.974V825.464C2576.73 815.351 2575.62 807.458 2573.4 801.784C2571.43 796.111 2567.6 791.918 2561.93 789.204C2556.5 786.244 2548.49 784.764 2537.88 784.764C2525.79 784.764 2514.94 786.368 2505.32 789.574C2495.7 792.534 2485.71 796.481 2475.35 801.414L2463.88 777.734C2467.58 774.528 2473.75 770.704 2482.38 766.264C2491.26 761.824 2501.74 758.001 2513.83 754.794C2525.92 751.341 2538.37 749.614 2551.2 749.614C2570.19 749.614 2584.99 752.081 2595.6 757.014C2606.45 761.948 2614.22 769.841 2618.91 780.694C2623.6 791.548 2625.94 806.101 2625.94 824.354V937.574H2645.92V958.294C2640.99 959.528 2633.96 960.761 2624.83 961.994C2615.7 963.228 2607.69 963.844 2600.78 963.844C2592.39 963.844 2586.72 962.611 2583.76 960.144C2581.05 957.678 2579.69 952.621 2579.69 944.974V934.984C2573.03 942.384 2564.4 949.044 2553.79 954.964C2543.18 960.884 2531.22 963.844 2517.9 963.844C2506.55 963.844 2496.07 961.501 2486.45 956.814C2477.08 951.881 2469.55 944.851 2463.88 935.724C2458.21 926.351 2455.37 915.128 2455.37 902.054ZM2541.58 933.134C2546.76 933.134 2552.68 931.654 2559.34 928.694C2566 925.488 2571.8 921.664 2576.73 917.224V856.544C2554.53 856.544 2537.88 860.368 2526.78 868.014C2515.93 875.414 2510.5 885.034 2510.5 896.874C2510.5 908.714 2513.21 917.718 2518.64 923.884C2524.31 930.051 2531.96 933.134 2541.58 933.134ZM2712.3 812.144C2704.65 812.144 2697.99 809.554 2692.32 804.374C2686.65 798.948 2683.81 792.164 2683.81 784.024C2683.81 774.898 2687.02 767.498 2693.43 761.824C2700.09 755.904 2708.11 752.944 2717.48 752.944C2726.36 752.944 2733.39 755.781 2738.57 761.454C2744 766.881 2746.71 773.418 2746.71 781.064C2746.71 790.684 2743.5 798.331 2737.09 804.004C2730.68 809.431 2722.41 812.144 2712.3 812.144ZM2712.3 963.104C2704.65 963.104 2697.99 960.514 2692.32 955.334C2686.65 949.908 2683.81 943.124 2683.81 934.984C2683.81 925.858 2687.02 918.458 2693.43 912.784C2700.09 906.864 2708.11 903.904 2717.48 903.904C2726.36 903.904 2733.39 906.741 2738.57 912.414C2744 917.841 2746.71 924.378 2746.71 932.024C2746.71 941.644 2743.5 949.291 2737.09 954.964C2730.68 960.391 2722.41 963.104 2712.3 963.104ZM2909.93 712.614L2880.33 707.804V684.864H3077.54L3082.35 747.024H3056.45L3044.24 710.394L2964.32 707.064V806.594L3015.75 805.484L3021.67 775.144H3045.35V864.684H3021.67L3015.75 832.864L2964.32 831.754V936.094L3053.86 931.654L3075.32 884.294L3103.07 892.064L3093.45 959.774H2880.7V937.574L2909.93 933.874V712.614ZM3146.09 789.204L3122.41 782.544V757.014L3183.83 749.244H3184.94L3194.19 756.644V771.074L3193.82 779.954C3202.45 771.814 3213.67 764.784 3227.49 758.864C3241.3 752.944 3255.24 749.984 3269.3 749.984C3284.34 749.984 3296.06 752.821 3304.45 758.494C3313.08 763.921 3319.25 772.554 3322.95 784.394C3326.65 796.234 3328.5 812.268 3328.5 832.494V934.614L3351.07 937.574V959.774H3255.61V937.574L3275.59 934.614V832.494C3275.59 819.668 3274.72 809.678 3273 802.524C3271.27 795.124 3268.06 789.821 3263.38 786.614C3258.94 783.161 3252.52 781.434 3244.14 781.434C3230.08 781.434 3215.03 787.478 3199 799.564V934.244L3221.2 937.574V959.774H3124.63V937.574L3146.09 934.244V789.204ZM3358.34 754.054H3456.02V775.514L3431.6 780.324L3465.27 880.964L3477.11 920.184L3487.1 882.074L3520.03 780.324L3496.72 775.514V754.054H3578.12V775.514L3558.88 780.324L3490.06 962.734H3447.14L3373.51 780.324L3358.34 775.514V754.054ZM3632.62 720.384C3623.74 720.384 3616.71 717.794 3611.53 712.614C3606.35 707.434 3603.76 700.774 3603.76 692.634C3603.76 683.261 3606.72 675.491 3612.64 669.324C3618.56 663.158 3626.45 660.074 3636.32 660.074C3646.19 660.074 3653.71 662.788 3658.89 668.214C3664.07 673.394 3666.66 679.931 3666.66 687.824C3666.66 697.691 3663.7 705.584 3657.78 711.504C3651.86 717.424 3643.6 720.384 3632.99 720.384H3632.62ZM3613.01 789.204L3586.74 782.174V757.384L3654.45 749.244H3655.19L3665.55 756.644V934.614L3690.34 937.574V959.774H3587.11V937.574L3613.01 934.244V789.204ZM3716.86 937.944L3741.28 934.984V789.204L3717.6 782.544V757.014L3774.95 749.244H3776.06L3785.31 756.644V764.784L3784.2 794.754H3785.31C3787.04 789.821 3791.11 783.778 3797.52 776.624C3803.93 769.224 3811.95 762.811 3821.57 757.384C3831.44 751.711 3842.04 748.874 3853.39 748.874C3858.82 748.874 3863.5 749.614 3867.45 751.094V806.594C3860.05 801.414 3851.05 798.824 3840.44 798.824C3822.43 798.824 3806.77 803.634 3793.45 813.254V934.614L3836.37 937.944V959.774H3716.86V937.944ZM3891.02 857.284C3891.02 834.098 3895.58 814.364 3904.71 798.084C3914.08 781.804 3926.54 769.594 3942.08 761.454C3957.62 753.068 3974.52 748.874 3992.77 748.874C4023.85 748.874 4047.78 758.494 4064.55 777.734C4081.57 796.728 4090.08 822.628 4090.08 855.434C4090.08 878.868 4085.39 898.848 4076.02 915.374C4066.89 931.654 4054.56 943.864 4039.02 952.004C4023.73 959.898 4006.83 963.844 3988.33 963.844C3957.5 963.844 3933.57 954.348 3916.55 935.354C3899.53 916.114 3891.02 890.091 3891.02 857.284ZM3991.29 939.794C4019.16 939.794 4033.1 912.908 4033.1 859.134C4033.1 831.014 4029.77 809.678 4023.11 795.124C4016.45 780.324 4005.6 772.924 3990.55 772.924C3961.94 772.924 3947.63 799.811 3947.63 853.584C3947.63 881.704 3951.08 903.164 3957.99 917.964C3965.14 932.518 3976.24 939.794 3991.29 939.794ZM4144.44 789.204L4120.76 782.544V757.014L4182.18 749.244H4183.29L4192.54 756.644V771.074L4192.17 779.954C4200.8 771.814 4212.02 764.784 4225.84 758.864C4239.65 752.944 4253.59 749.984 4267.65 749.984C4282.69 749.984 4294.41 752.821 4302.8 758.494C4311.43 763.921 4317.6 772.554 4321.3 784.394C4325 796.234 4326.85 812.268 4326.85 832.494V934.614L4349.42 937.574V959.774H4253.96V937.574L4273.94 934.614V832.494C4273.94 819.668 4273.07 809.678 4271.35 802.524C4269.62 795.124 4266.41 789.821 4261.73 786.614C4257.29 783.161 4250.87 781.434 4242.49 781.434C4228.43 781.434 4213.38 787.478 4197.35 799.564V934.244L4219.55 937.574V959.774H4122.98V937.574L4144.44 934.244V789.204ZM4375.56 937.574L4396.28 934.244V789.204L4372.6 782.544V757.014L4434.02 749.244L4438.46 752.204L4444.01 764.414V779.954C4452.15 772.061 4463.75 765.154 4478.79 759.234C4494.09 753.068 4507.28 749.984 4518.38 749.984C4531.7 749.984 4542.43 752.204 4550.57 756.644C4558.96 761.084 4565.25 767.991 4569.44 777.364C4577.58 769.964 4588.31 763.551 4601.63 758.124C4614.95 752.698 4628.03 749.984 4640.85 749.984C4662.81 749.984 4678.35 756.398 4687.47 769.224C4696.6 782.051 4701.16 803.018 4701.16 832.124V934.244L4725.21 937.574V959.774H4629.38V937.574L4648.62 934.244V833.604C4648.62 814.364 4646.28 800.921 4641.59 793.274C4637.15 785.381 4628.52 781.434 4615.69 781.434C4608.79 781.434 4601.63 783.038 4594.23 786.244C4587.08 789.204 4580.67 792.904 4574.99 797.344C4576.72 806.718 4577.58 818.434 4577.58 832.494V934.244L4600.52 937.574V959.774H4503.95V937.574L4524.3 934.244V832.494C4524.3 819.668 4523.44 809.678 4521.71 802.524C4520.23 795.124 4517.27 789.821 4512.83 786.614C4508.39 783.161 4501.98 781.434 4493.59 781.434C4485.7 781.434 4477.81 783.284 4469.91 786.984C4462.27 790.438 4455.36 794.631 4449.19 799.564V934.244L4471.02 937.574V959.774H4375.56V937.574ZM4843.5 963.844C4810.94 963.844 4786.64 954.348 4770.61 935.354C4754.82 916.114 4746.93 889.968 4746.93 856.914C4746.93 834.714 4751 815.474 4759.14 799.194C4767.53 782.914 4779.24 770.458 4794.29 761.824C4809.34 753.191 4826.73 748.874 4846.46 748.874C4871.13 748.874 4890.12 755.411 4903.44 768.484C4916.76 781.311 4923.67 799.688 4924.16 823.614C4924.16 839.894 4923.17 851.981 4921.2 859.874H4800.95C4801.94 882.321 4807.24 899.834 4816.86 912.414C4826.48 924.748 4840.17 930.914 4857.93 930.914C4867.55 930.914 4877.42 929.311 4887.53 926.104C4897.89 922.898 4906.03 919.074 4911.95 914.634L4921.2 934.984C4914.54 942.138 4903.69 948.798 4888.64 954.964C4873.84 960.884 4858.79 963.844 4843.5 963.844ZM4872.36 837.674C4872.85 830.768 4873.1 825.464 4873.1 821.764C4873.1 788.958 4862.12 772.554 4840.17 772.554C4828.08 772.554 4818.71 777.364 4812.05 786.984C4805.39 796.604 4801.69 813.501 4800.95 837.674H4872.36ZM4974.41 789.204L4950.73 782.544V757.014L5012.15 749.244H5013.26L5022.51 756.644V771.074L5022.14 779.954C5030.77 771.814 5041.99 764.784 5055.81 758.864C5069.62 752.944 5083.56 749.984 5097.62 749.984C5112.66 749.984 5124.38 752.821 5132.77 758.494C5141.4 763.921 5147.57 772.554 5151.27 784.394C5154.97 796.234 5156.82 812.268 5156.82 832.494V934.614L5179.39 937.574V959.774H5083.93V937.574L5103.91 934.614V832.494C5103.91 819.668 5103.04 809.678 5101.32 802.524C5099.59 795.124 5096.38 789.821 5091.7 786.614C5087.26 783.161 5080.84 781.434 5072.46 781.434C5058.4 781.434 5043.35 787.478 5027.32 799.564V934.244L5049.52 937.574V959.774H4952.95V937.574L4974.41 934.244V789.204ZM5267.69 963.104C5252.15 963.104 5240.68 959.528 5233.28 952.374C5225.88 945.221 5222.18 933.874 5222.18 918.334V782.544H5198.13V763.304C5200.11 762.564 5203.68 761.331 5208.86 759.604C5214.04 757.631 5217.99 756.028 5220.7 754.794C5224.9 751.588 5228.47 746.038 5231.43 738.144C5233.65 732.964 5237.72 720.138 5243.64 699.664H5273.24L5274.72 754.054H5331.33V782.544H5275.09V886.514C5275.09 900.328 5275.46 910.071 5276.2 915.744C5276.94 921.418 5278.55 925.118 5281.01 926.844C5283.48 928.324 5287.8 929.064 5293.96 929.064C5300.13 929.064 5306.54 928.448 5313.2 927.214C5319.86 925.734 5325.41 924.008 5329.85 922.034L5336.88 942.754C5329.98 947.934 5319.86 952.621 5306.54 956.814C5293.22 961.008 5280.27 963.104 5267.69 963.104Z" fill="black"/>
<defs>
<linearGradient id="paint0_linear_4_43" x1="468" y1="1079.5" x2="468" y2="972.5" gradientUnits="userSpaceOnUse">
<stop stop-color="#6CBD43"/>
<stop offset="1" stop-color="#32571F"/>
</linearGradient>
<linearGradient id="paint1_linear_4_43" x1="323" y1="539.944" x2="579" y2="539.944" gradientUnits="userSpaceOnUse">
<stop stop-color="#6CBD43"/>
<stop offset="0.5" stop-color="#0E733B"/>
<stop offset="1" stop-color="#6CBD43"/>
</linearGradient>
<linearGradient id="paint2_linear_4_43" x1="468" y1="1028" x2="468" y2="816" gradientUnits="userSpaceOnUse">
<stop stop-color="#6CBD43"/>
<stop offset="1" stop-color="#32571F"/>
</linearGradient>
</defs>
</svg>
