<svg width="100" height="100" viewBox="0 0 100 100" fill="none" xmlns="http://www.w3.org/2000/svg">
<g clip-path="url(#clip0_6_76)">
<path d="M77.6684 62.5C77.1297 62.9203 76.5746 63.3217 76.0038 63.7031C71.4147 66.7695 66.0193 68.4061 60.5 68.4061V76C67.5212 76 74.3848 73.918 80.2227 70.0172C86.0607 66.1164 90.6108 60.572 93.2977 54.0853C95.9846 47.5985 96.6876 40.4606 95.3179 33.5743C93.9481 26.688 90.567 20.3625 85.6023 15.3977C80.6375 10.433 74.312 7.05191 67.4257 5.68214C60.5394 4.31236 53.4015 5.01538 46.9147 7.70229C40.428 10.3892 34.8836 14.9393 30.9828 20.7773C29.1903 23.46 26.42 29.14 25 33.8733L31 39C33 32.5 34.9557 28.5 37.2969 24.9962C37.6387 24.4847 37.9965 23.9857 38.3696 23.5" stroke="black" stroke-width="3" stroke-linecap="round" stroke-linejoin="round"/>
<path d="M82.5 57.6684C84.0391 55.6962 85.3142 53.5154 86.2819 51.1792C88.394 46.08 88.9467 40.4691 87.8699 35.0558C86.7931 29.6425 84.1353 24.6701 80.2326 20.7674C76.3299 16.8647 71.3575 14.2069 65.9442 13.1301C60.5309 12.0533 54.9199 12.606 49.8208 14.7181C47.3528 15.7404 45.0584 17.1057 43 18.7629" stroke="black" stroke-width="3" stroke-linecap="round"/>
<path d="M38.7117 23.5L77.5 62.2883" stroke="black" stroke-width="3" stroke-linecap="round"/>
<path d="M43.2117 19L82.2117 58" stroke="black" stroke-width="3" stroke-linecap="round"/>
<path d="M51.525 49.5938L45 55" stroke="black" stroke-width="3" stroke-linecap="round"/>
<path d="M63.6822 33.1178C64.4177 32.575 65.2157 32.0463 66.0653 31.5453C71.2799 28.4707 76.4657 27.604 77.6483 29.6096C78.8309 31.6152 75.5623 35.7335 70.3478 38.8082C70.1821 38.9059 70.0164 39.0014 69.8508 39.0947" stroke="black" stroke-width="3" stroke-linecap="round"/>
<path d="M72.5096 19.2333C71.3565 21.9466 70.5917 24.3989 68.1096 26.3529L68.6536 28.6568" stroke="black" stroke-width="3" stroke-linecap="round"/>
<path d="M58.8472 55.1048C59.4749 53.715 59.9971 52.3928 60.7044 51.1773" stroke="black" stroke-width="3" stroke-linecap="round"/>
<path d="M47.622 42.1321C48.7166 42.0103 49.7608 41.9299 50.7741 41.7823" stroke="black" stroke-width="3" stroke-linecap="round"/>
<path d="M85.3324 39.6061C82.4574 38.9531 80.0213 38.1381 76.9843 39.0071L75.4345 37.2178" stroke="black" stroke-width="3" stroke-linecap="round"/>
<path d="M79.6968 49.2361C80.0216 49.1168 80.2654 48.9335 80.4128 48.683C81.3023 47.1712 78.3468 43.7824 73.8115 41.1138C72.8086 40.5237 71.8124 40.0182 70.8594 39.6051" stroke="black" stroke-width="3" stroke-linecap="round"/>
<path d="M63.4075 32.716C63.5843 30.9453 63.4461 28.6502 62.948 26.1983C61.9004 21.0415 59.6576 17.1441 57.9387 17.4933C56.2197 17.8425 55.6755 22.306 56.7231 27.4629" stroke="black" stroke-width="3" stroke-linecap="round"/>
<path d="M57.0958 48.6734C56.7573 48.9993 56.3561 49.2928 55.9016 49.5344C53.9525 50.5706 51.7615 50.2614 51.0079 48.8439C50.3213 47.5522 51.065 45.786 52.6771 44.6986" stroke="black" stroke-width="3" stroke-linecap="round"/>
<rect x="53.881" y="85.6506" width="42.6264" height="20.0595" rx="8.14732" transform="rotate(175.287 53.881 85.6506)" stroke="black" stroke-width="3"/>
<line x1="33.2052" y1="87.2572" x2="31.6454" y2="68.3354" stroke="black" stroke-width="3" stroke-linecap="round"/>
<path d="M42.3467 61.181L20.6433 42.7253C17.2155 39.8104 12.0736 40.2262 9.15875 43.654L6.71984 46.5221C3.80494 49.95 4.22076 55.0918 7.6486 58.0067L15.3085 64.5203" stroke="black" stroke-width="3" stroke-linecap="round"/>
<path d="M21.0575 63.4498L30.6098 52.1812" stroke="black" stroke-width="3" stroke-linecap="round"/>
<path d="M28.3035 8.61504C21.92 11.6931 16.3246 16.1895 11.9446 21.7607C7.56455 27.3319 4.5159 33.8305 3.0315 40.7601" stroke="black" stroke-width="3" stroke-linecap="round"/>
<path d="M35.9635 95.2782C45.362 97.9095 55.3502 97.5168 64.5131 94.1558C73.676 90.7948 81.5491 84.6359 87.0171 76.5516" stroke="black" stroke-width="3" stroke-linecap="round"/>
</g>
<defs>
<clipPath id="clip0_6_76">
<rect width="100" height="100" fill="white"/>
</clipPath>
</defs>
</svg>
