<svg width="100" height="100" viewBox="0 0 100 100" fill="none" xmlns="http://www.w3.org/2000/svg">
<path d="M68.7284 71.5708L76.3333 78.0221C80.0038 77.3387 81.6671 76.5241 83.3951 73.7213L79.5926 64.0443" stroke="black" stroke-width="3" stroke-linecap="round" stroke-linejoin="round"/>
<path d="M90.9999 92L81.2222 78.5598" stroke="black" stroke-width="3" stroke-linecap="round" stroke-linejoin="round"/>
<path d="M38.8518 44.1528L60.5802 74.2589C65.8402 72.5992 68.8249 71.1843 74.1605 67.8076C79.496 64.4309 81.6725 61.8342 85.0246 57.0554L63.8395 27.4869" stroke="black" stroke-width="3" stroke-linecap="round" stroke-linejoin="round"/>
<path d="M39.395 26.9493L46.5 36.5854" stroke="black" stroke-width="3" stroke-linecap="round" stroke-linejoin="round"/>
<path d="M61 39.5L62.2099 41.4648C61 43.5 56.5 46.5 54.0617 46.8408L52.5 44.5" stroke="black" stroke-width="3" stroke-linecap="round" stroke-linejoin="round"/>
<path d="M55 32C53 34.5 50.5636 35.9795 47 37" stroke="black" stroke-width="3" stroke-linecap="round" stroke-linejoin="round"/>
<path d="M54.7643 31.6397L47.5432 22.1108" stroke="black" stroke-width="3" stroke-linecap="round" stroke-linejoin="round"/>
<path d="M29.5793 62.5172C30.4073 62.5177 31.0792 63.1892 31.0793 64.0172V69.4078H36.8372C37.6652 69.4082 38.3371 70.0797 38.3372 70.9078V76.9371C38.3368 77.765 37.665 78.4367 36.8372 78.4371H31.0793V83.8268C31.0792 84.6548 30.4073 85.3263 29.5793 85.3268H22.3215C21.4932 85.3268 20.8217 84.6551 20.8215 83.8268V78.4371H15.0627C14.2347 78.4369 13.5631 77.7651 13.5627 76.9371V70.9078C13.5628 70.0795 14.2353 69.4078 15.0637 69.4078H20.8215V64.0172C20.8216 63.1889 21.4932 62.5172 22.3215 62.5172H29.5793ZM23.8215 70.9078C23.8215 71.27 23.6925 71.6027 23.4788 71.8619C23.4046 71.9518 23.3178 72.0307 23.2249 72.1012C22.9734 72.292 22.6614 72.4076 22.3215 72.4078L22.3206 72.4069V72.4078H16.5627V75.4371H22.302C22.3082 75.437 22.3153 75.4362 22.3215 75.4362C23.1494 75.4366 23.8213 76.1083 23.8215 76.9362V82.3268H28.0793V76.9362C28.0796 76.108 28.7511 75.4362 29.5793 75.4362C29.5857 75.4362 29.5925 75.4371 29.5989 75.4371H35.3372V72.4078H29.5793C28.751 72.4078 28.0795 71.7361 28.0793 70.9078C28.0794 70.8397 28.0852 70.7724 28.094 70.7067C28.0849 70.6399 28.0794 70.5718 28.0793 70.5026V65.5172H23.8215V70.9078Z" fill="black"/>
<path d="M24.1432 29.6374C13.321 29.6374 3.00046 30.7126 3 34.5655C2.99954 38.4183 8.4321 41.4648 27.9877 41.4648" stroke="black" stroke-width="3" stroke-linecap="round" stroke-linejoin="round"/>
<path d="M3 53.2922C3.64556 53.4789 4.27538 53.6731 4.90123 53.8364M40.4815 55.4426C31.3827 57.2705 19.2963 57.593 4.90123 53.8364M4.90123 53.8364V86.1938C11.74 90.3349 17.2593 92 25.8148 92C34.3704 92 40.3148 91.7148 48.6296 87.1615V66.8399" stroke="black" stroke-width="3" stroke-linecap="round" stroke-linejoin="round"/>
<path d="M3 53.2922V35.0135" stroke="black" stroke-width="3" stroke-linecap="round" stroke-linejoin="round"/>
<path d="M33.9633 12.434C26.6522 17.4202 24.7294 23.7239 25.8151 25.3366C26.9009 26.9494 35.8265 24.2698 42.1114 19.9605C48.3964 15.6512 50.8031 9.88188 49.7163 8.67072C48.6296 7.45956 41.2743 7.44773 33.9633 12.434Z" stroke="black" stroke-width="3" stroke-linecap="round" stroke-linejoin="round"/>
<path d="M52 27.8635C57.8474 25.5048 62.8277 25.721 63.7317 26.6779C64.8881 27.9019 62.3271 33.7326 55.6395 38.0878C48.9519 42.4429 39.4545 45.151 38.2992 43.5211C37.3304 42.1543 38.6128 37.4536 43.6397 33" stroke="black" stroke-width="3" stroke-linecap="round" stroke-linejoin="round"/>
<path d="M61.1235 39.4965C65.9466 37.7953 69.8686 38.0511 70.6392 38.9099C71.726 40.121 69.3192 45.8903 63.0343 50.1996C56.7493 54.5089 47.8237 57.1886 46.738 55.5757C45.7947 54.1746 47.1223 49.2329 52.2811 44.6904" stroke="black" stroke-width="3" stroke-linecap="round" stroke-linejoin="round"/>
<path d="M52.17 12.0294C53.2568 13.2405 50.85 19.0098 44.5651 23.3191C38.2801 27.6284 29.3546 30.3081 28.2688 28.6952" stroke="black" stroke-width="3" stroke-linecap="round" stroke-linejoin="round"/>
<path d="M49.1917 58.9344C50.2774 60.5472 59.203 57.8676 65.4879 53.5583C71.7729 49.249 74.1797 43.4797 73.0929 42.2685" stroke="black" stroke-width="3" stroke-linecap="round" stroke-linejoin="round"/>
<path d="M27.9877 28.5621L25.8148 25.3365" stroke="black" stroke-width="3" stroke-linecap="round" stroke-linejoin="round"/>
<path d="M52.4321 12.4339L50.2593 9.20825" stroke="black" stroke-width="3" stroke-linecap="round" stroke-linejoin="round"/>
<path d="M20.3232 16.1219C17.5851 18.4574 15.1275 21.1029 12.9996 24.0051" stroke="black" stroke-width="3" stroke-linecap="round"/>
<path d="M47.0332 97.8706C56.8953 98.6079 66.7355 96.1818 75.1246 90.9446" stroke="black" stroke-width="3" stroke-linecap="round"/>
<path d="M93.2134 69.8798C95.6271 64.2705 96.9123 58.2409 96.9957 52.135C97.079 46.0291 95.959 39.9665 93.6994 34.2935C91.4398 28.6205 88.0849 23.4481 83.8264 19.0716C79.5678 14.6951 74.489 11.2003 68.8797 8.7866" stroke="black" stroke-width="3" stroke-linecap="round"/>
</svg>
