<svg width="100" height="100" viewBox="0 0 100 100" fill="none" xmlns="http://www.w3.org/2000/svg">
<g clip-path="url(#clip0_6_35)">
<path d="M18.8533 73.0055V21.7661" stroke="black" stroke-width="3" stroke-linecap="round" stroke-linejoin="round"/>
<path d="M18.8532 21.766C20.6279 21.766 22.0665 18.2366 22.0665 13.883C22.0665 9.52933 20.6279 6 18.8532 6C17.0785 6 15.6399 9.52933 15.6399 13.883C15.6399 18.2366 17.0785 21.766 18.8532 21.766Z" stroke="black" stroke-width="3" stroke-linecap="round" stroke-linejoin="round"/>
<path d="M16.5274 36.7935C18.1358 35.6435 18.4669 31.5126 17.2668 27.5669C16.0668 23.6211 13.7902 21.3547 12.1818 22.5047C10.5734 23.6546 10.2423 27.7855 11.4423 31.7313C12.6424 35.677 14.919 37.9435 16.5274 36.7935Z" stroke="black" stroke-width="3" stroke-linecap="round" stroke-linejoin="round"/>
<path d="M21.1791 36.7934C22.7875 37.9433 25.0641 35.6769 26.2641 31.7311C27.4641 27.7854 27.1331 23.6545 25.5247 22.5045C23.9163 21.3546 21.6396 23.621 20.4396 27.5668C19.2396 31.5125 19.5707 35.6434 21.1791 36.7934Z" stroke="black" stroke-width="3" stroke-linecap="round" stroke-linejoin="round"/>
<path d="M16.5274 52.5594C18.1358 51.4095 18.4669 47.2786 17.2668 43.3328C16.0668 39.3871 13.7902 37.1206 12.1818 38.2706C10.5734 39.4206 10.2423 43.5514 11.4423 47.4972C12.6424 51.4429 14.919 53.7094 16.5274 52.5594Z" stroke="black" stroke-width="3" stroke-linecap="round" stroke-linejoin="round"/>
<path d="M21.1791 52.5594C22.7875 53.7094 25.0641 51.4429 26.2641 47.4972C27.4641 43.5514 27.1331 39.4206 25.5247 38.2706C23.9163 37.1206 21.6396 39.3871 20.4396 43.3328C19.2396 47.2786 19.5707 51.4095 21.1791 52.5594Z" stroke="black" stroke-width="3" stroke-linecap="round" stroke-linejoin="round"/>
<path d="M42.5 73.0055V38.2531" stroke="black" stroke-width="3" stroke-linecap="round" stroke-linejoin="round"/>
<path d="M42.4999 38.253C43.7036 38.253 44.6793 35.8593 44.6793 32.9065C44.6793 29.9537 43.7036 27.56 42.4999 27.56C41.2963 27.56 40.3206 29.9537 40.3206 32.9065C40.3206 35.8593 41.2963 38.253 42.4999 38.253Z" stroke="black" stroke-width="3" stroke-linecap="round" stroke-linejoin="round"/>
<path d="M40.9225 48.4452C42.0134 47.6653 42.2379 44.8636 41.4241 42.1874C40.6102 39.5113 39.0661 37.9741 37.9752 38.7541C36.8843 39.534 36.6598 42.3357 37.4737 45.0118C38.2876 47.688 39.8317 49.2252 40.9225 48.4452Z" stroke="black" stroke-width="3" stroke-linecap="round" stroke-linejoin="round"/>
<path d="M44.0774 48.4452C45.1683 49.2251 46.7124 47.688 47.5263 45.0118C48.3402 42.3357 48.1156 39.5339 47.0248 38.754C45.9339 37.9741 44.3898 39.5112 43.5759 42.1874C42.762 44.8635 42.9865 47.6652 44.0774 48.4452Z" stroke="black" stroke-width="3" stroke-linecap="round" stroke-linejoin="round"/>
<path d="M40.9225 59.1382C42.0134 58.3583 42.2379 55.5566 41.4241 52.8804C40.6102 50.2043 39.0661 48.6671 37.9752 49.447C36.8843 50.227 36.6598 53.0287 37.4737 55.7048C38.2876 58.381 39.8317 59.9182 40.9225 59.1382Z" stroke="black" stroke-width="3" stroke-linecap="round" stroke-linejoin="round"/>
<path d="M44.0774 59.1382C45.1683 59.9182 46.7124 58.381 47.5263 55.7049C48.3402 53.0287 48.1156 50.227 47.0248 49.4471C45.9339 48.6671 44.3898 50.2043 43.5759 52.8804C42.762 55.5566 42.9865 58.3583 44.0774 59.1382Z" stroke="black" stroke-width="3" stroke-linecap="round" stroke-linejoin="round"/>
<path d="M61.0056 73.0055V51.5895" stroke="black" stroke-width="3" stroke-linecap="round" stroke-linejoin="round"/>
<path d="M61.0056 51.5895C61.7474 51.5895 62.3487 50.1144 62.3487 48.2948C62.3487 46.4751 61.7474 45 61.0056 45C60.2639 45 59.6626 46.4751 59.6626 48.2948C59.6626 50.1144 60.2639 51.5895 61.0056 51.5895Z" stroke="black" stroke-width="3" stroke-linecap="round" stroke-linejoin="round"/>
<path d="M60.0335 57.8704C60.7057 57.3897 60.8441 55.6632 60.3425 54.014C59.841 52.3649 58.8894 51.4176 58.2172 51.8982C57.545 52.3789 57.4066 54.1054 57.9081 55.7546C58.4097 57.4037 59.3612 58.351 60.0335 57.8704Z" stroke="black" stroke-width="3" stroke-linecap="round" stroke-linejoin="round"/>
<path d="M61.9777 57.8703C62.6499 58.351 63.6015 57.4037 64.103 55.7545C64.6046 54.1054 64.4662 52.3789 63.794 51.8982C63.1217 51.4176 62.1702 52.3649 61.6686 54.014C61.1671 55.6632 61.3055 57.3897 61.9777 57.8703Z" stroke="black" stroke-width="3" stroke-linecap="round" stroke-linejoin="round"/>
<path d="M60.0335 64.4599C60.7057 63.9793 60.8441 62.2527 60.3425 60.6036C59.841 58.9544 58.8894 58.0071 58.2172 58.4878C57.545 58.9684 57.4066 60.6949 57.9081 62.3441C58.4097 63.9933 59.3612 64.9405 60.0335 64.4599Z" stroke="black" stroke-width="3" stroke-linecap="round" stroke-linejoin="round"/>
<path d="M61.9777 64.4599C62.6499 64.9405 63.6015 63.9932 64.103 62.3441C64.6046 60.6949 64.4662 58.9684 63.794 58.4878C63.1217 58.0071 62.1702 58.9544 61.6686 60.6036C61.1671 62.2527 61.3055 63.9793 61.9777 64.4599Z" stroke="black" stroke-width="3" stroke-linecap="round" stroke-linejoin="round"/>
<path d="M9 76L84 76" stroke="black" stroke-width="3" stroke-linecap="round" stroke-linejoin="round"/>
<path d="M16 83L70 83" stroke="black" stroke-width="3" stroke-linecap="round" stroke-linejoin="round"/>
<path d="M28 91L49 91" stroke="black" stroke-width="3" stroke-linecap="round" stroke-linejoin="round"/>
<path d="M78.6 4C72.0388 7.39377 69.5613 10.6357 63 6.88442V28.9296C68.2724 36.6111 70.5406 40.1823 78.6 45C87.0278 39.868 90.3445 36.3232 94 28.9296V6.88442C88.4546 10.2187 84.1454 6.93953 78.6 4Z" stroke="black" stroke-width="3" stroke-linecap="round" stroke-linejoin="round"/>
<path d="M3 52.5C3 58.9416 4.33839 65.313 6.93032 71.2102C9.52224 77.1074 13.3112 82.4017 18.0569 86.7575C22.8026 91.1134 28.4015 94.4356 34.4987 96.5138C40.596 98.5919 47.0585 99.3805 53.4765 98.8297C59.8946 98.2788 66.1282 96.4004 71.7821 93.3137C77.436 90.227 82.3869 85.9992 86.321 80.8984C90.255 75.7976 93.0863 69.935 94.6354 63.6824C96.1845 57.4298 96.4176 50.9235 95.3199 44.5761" stroke="black" stroke-width="3" stroke-linecap="round"/>
<path d="M50.7135 6.01584C44.0062 5.84074 37.3405 7.11923 31.174 9.76352" stroke="black" stroke-width="3" stroke-linecap="round"/>
</g>
<defs>
<clipPath id="clip0_6_35">
<rect width="100" height="100" fill="white"/>
</clipPath>
</defs>
</svg>
