<svg width="1600" height="1600" viewBox="0 0 1600 1600" fill="none" xmlns="http://www.w3.org/2000/svg">
<path d="M801.498 301C956.136 301.001 1115.98 424 1115.98 618.622C1115.98 722 1061.38 807.999 1045.98 823.273C1012.98 856 986.202 916 986.202 1004.44C986.202 1014.5 979.808 1029.42 978.164 1032.57C965.784 1056.35 944.841 1071.64 920.88 1084.49C920.932 1084.51 920.983 1084.54 921.035 1084.56C931.415 1088.83 942.771 1094.23 950.639 1101.2C965.905 1114.71 975.356 1131.69 975.356 1151.28C975.356 1173.99 968.663 1185.49 954.163 1199.49C950.82 1202.72 942.722 1208.69 931.022 1214.22C946.077 1226.27 960.404 1239.18 971.977 1257.68C980.217 1270.86 977.149 1286.94 963.977 1295.18C951.216 1303.16 933.355 1301.03 924.832 1288.83L924.035 1287.62L922.477 1285.18C906.214 1260.39 883.115 1247.88 850.177 1240.47C823.03 1234.37 788.876 1232.3 743.985 1231.9C737.734 1231.98 731.409 1232.06 725.029 1232.13C715.179 1232.32 705.019 1232.49 694.553 1232.64C679.051 1232.87 666.284 1219.51 666.007 1204.01C665.73 1188.5 678.613 1175.68 694.113 1175.35C740.495 1174.38 757.389 1174.51 803.771 1175.34C812.964 1175.51 917.172 1173.49 917.173 1153.24C917.173 1141.18 891.437 1134.03 881.149 1131.69C848.049 1124.19 795.808 1120.59 717.219 1120.13C706.985 1120.42 698.802 1120.5 693.5 1120.5C676 1120.5 664.728 1108.89 664.5 1093.5C664.272 1078.11 675.5 1064 692 1064C764.343 1064 814.845 1058.09 855.477 1048C909.977 1034.47 928.893 1013 929.477 1001.5C933.864 915 948.14 880.308 963.977 843.5C982.873 799.579 1059.71 748.5 1059.71 615.622C1059.71 469.5 933.477 356.282 801.498 356.282C666.477 356.282 538.161 463.505 540.264 622.315C541.477 714 587.19 764.599 613.845 799.465C624.445 813.332 634.551 835.714 641.699 853.281C649.065 871.383 654.148 889.105 655.916 895.96C660.067 912.051 665.477 919 669.977 924C673.442 927.851 679.064 931.24 681.477 932.5C685.015 934.347 696.977 937.163 704.018 937.163H751.757C772.355 937.163 778.477 925.975 804.433 895.921C828.977 867.501 857.499 827.5 883.817 773.829C904.944 730.746 913.565 707.149 912.041 674.173C911.029 652.28 903.036 647.897 897.956 642.924C892.974 638.047 884.011 632.592 870.961 632.652C850.713 632.746 833.977 648 824.58 657.793C828.532 665.833 829.531 676.863 829.531 684.668C829.531 691.165 828.266 698.965 823.57 707.441C817.948 717.59 810.032 724.105 798.456 724.105C788.467 724.105 779.807 718.767 773.332 709.034C767.983 700.994 766.303 691.934 766.303 683.894C766.303 672.077 769.653 661.127 772.189 654.658C767.064 648.137 754.948 630.282 731.477 630.282C718.827 630.282 706.8 638.63 700.314 645.411C693.829 652.192 687.085 664.056 687.272 679.154C687.556 701.987 692.95 719.79 703.54 740.309C713.983 760.541 730.967 782.46 762.441 816.054L768.917 822.904L769.891 823.976C779.606 835.253 778.873 852.296 767.983 862.689C757.093 873.083 740.039 873.016 729.232 862.779L728.208 861.755L721.485 854.649C688.6 819.567 667.489 793.14 653.545 766.125C638.124 736.247 632.377 709.452 632.01 679.854C631.611 647.673 643.799 620.441 663.706 602.549C683.03 585.181 703.539 575 733.477 575C765.508 575 783.592 591.084 801.803 609.625C819.86 590.654 843.04 576.507 872.702 576.37C895.821 576.264 919.793 585.569 938.314 603.703C956.739 621.743 966.819 643.627 968.249 674.574C970.53 723.932 954.503 756.917 935.566 798.153C935.345 798.635 935.112 799.111 934.864 799.579C915.989 835.227 886.102 881.121 858.741 918.291C845.097 936.827 831.31 953.907 818.924 966.635C812.781 972.947 806.326 978.878 799.876 983.43C794.54 987.195 784.581 993.444 772.354 993.444H708.935C703.539 993.444 686.477 992 680.869 991.137C677.315 990.589 664.008 986.487 660.652 984.735C653.92 981.221 646.506 978.198 639.219 971.62C624.541 958.37 609.691 942.151 602.435 914.022C601.61 910.826 595.642 890.845 588.585 873.501C577.395 846 564.977 827 548.977 808C530.029 785.5 484 714 484 622.928C484 433.989 630.687 300.999 801.498 301Z" fill="black"/>
</svg>
