<svg width="1600" height="1600" viewBox="0 0 1600 1600" fill="none" xmlns="http://www.w3.org/2000/svg">
<path fill-rule="evenodd" clip-rule="evenodd" d="M801.53 301C956.184 301.001 1116.04 424 1116.04 618.622C1116.04 722 1061.44 808 1046.03 823.274C1013.03 856.001 986.253 916.001 986.253 1004.44C986.253 1014.5 979.858 1029.42 978.214 1032.58C965.957 1056.11 944.874 1070.54 921.597 1084.02C922.435 1084.26 923.257 1084.51 924.062 1084.77C934.771 1088.14 944.799 1095.44 952.668 1102.41C967.936 1115.92 978.389 1132.7 978.389 1151.49C978.389 1160.49 976.169 1170.89 972.299 1180.2C968.114 1190.26 962.058 1196.78 954.309 1202.31C947.729 1207 942.152 1211.71 933.667 1214.7C933.63 1214.72 933.593 1214.73 933.556 1214.74C933.592 1214.77 933.629 1214.79 933.665 1214.82C949.266 1226.19 963.084 1239.8 974.67 1258.32C982.911 1271.5 979.842 1287.58 966.669 1295.82C953.907 1303.8 936.043 1301.67 927.52 1289.47L926.723 1288.26L925.164 1285.82C908.9 1261.03 885.798 1248.52 852.856 1241.12C822.072 1234.2 782.272 1231.82 728.033 1232.46C718.182 1232.65 708.02 1232.81 697.553 1232.97C682.049 1233.2 669.281 1219.84 669.004 1204.34C668.995 1203.85 668.999 1203.36 669.017 1202.88C669.481 1187.98 682.065 1175.88 697.116 1175.56C743.503 1174.59 760.398 1174.72 806.786 1175.55C815.98 1175.72 920.197 1173.7 920.198 1153.45C920.198 1141.39 894.46 1134.24 884.172 1131.9C851.852 1124.58 801.283 1121.77 725.759 1121.35C710.773 1121.93 698.896 1122.08 692.033 1122.09C676.641 1122.11 664.086 1109.76 663.857 1094.37C663.63 1078.97 676.585 1064.23 691.971 1063.8C764.322 1063.8 814.879 1058.09 855.515 1048C910.02 1034.47 928.938 1013 929.521 1001.5C933.909 915.001 948.188 880.309 964.025 843.501C982.924 799.58 1059.77 748.501 1059.77 615.622C1059.77 469.5 933.522 356.282 801.53 356.282C666.496 356.282 538.166 463.505 540.269 622.315C541.482 714 587.2 764.6 613.857 799.466C624.459 813.333 634.566 835.715 641.715 853.282C649.081 871.384 654.165 889.106 655.934 895.961C660.085 912.052 665.496 919.001 669.996 924.001C673.462 927.852 679.085 931.242 681.497 932.501C685.036 934.348 696.999 937.164 704.04 937.164H792.999C813.599 937.164 832.475 924.001 824.614 895.961C817.103 869.169 800.419 850.867 789.802 809.708C789.55 808.714 789.303 807.716 789.062 806.715L786.873 806.799C783.914 806.905 781.856 806.96 781.118 806.945C666.162 804.672 550.708 687.581 608.294 536.63C700.942 530.454 767.549 570.346 812.016 629.025C815.364 623.679 818.937 618.531 822.712 613.691C829.441 604.918 836.83 597.118 844.762 590.944C923.609 529.576 961.701 536.63 996.266 536.63C1042.23 653.666 979.603 777.372 849.738 802.695C850.143 804.181 850.157 805.587 849.837 806.908C863.445 852.777 884.701 871.452 884.701 898.841C884.701 932.501 877.337 944.659 864.95 957.387C844.918 977.97 815.116 993.444 785.944 993.445C755.917 993.446 709.077 993.445 708.958 993.445C703.562 993.445 686.497 992.001 680.889 991.138C677.334 990.59 664.027 986.488 660.671 984.736C653.938 981.222 646.522 978.199 639.234 971.621C624.555 958.371 609.704 942.152 602.447 914.023C601.623 910.827 595.654 890.846 588.596 873.502C577.404 846.001 564.985 827.001 548.983 808.001C530.034 785.501 484 714.001 484 622.929C484 433.989 630.702 300.999 801.53 301ZM954.667 592.645C954.262 592.763 953.872 592.88 953.5 593C862.497 622.307 836.058 686.755 839.902 751.783C884.838 739.799 962.175 699.602 954.667 592.645ZM652.029 592.354C646.357 677.431 700.239 739.422 781.826 751.671C781.541 741.236 781.861 730.749 782.823 720.347C782.158 716.297 780.531 709.939 779.756 707.276C757.81 631.933 723.098 609.952 652.029 592.354Z" fill="white"/>
</svg>
