<svg width="1600" height="1600" viewBox="0 0 1600 1600" fill="none" xmlns="http://www.w3.org/2000/svg">
<path fill-rule="evenodd" clip-rule="evenodd" d="M933.665 1213.82C949.265 1225.19 963.084 1238.8 974.669 1257.32C982.911 1270.5 979.842 1286.58 966.668 1294.82C953.907 1302.8 936.042 1300.67 927.519 1288.47L926.722 1287.26L925.164 1284.82C908.9 1260.03 885.798 1247.52 852.857 1240.12C822.072 1233.2 782.273 1230.82 728.034 1231.46C718.182 1231.65 708.021 1231.82 697.553 1231.97C682.05 1232.2 669.282 1218.84 669.004 1203.34C668.727 1187.83 681.612 1175.01 697.114 1174.68C743.501 1173.71 760.396 1173.84 806.784 1174.67C840.829 1175.28 902.143 1190.85 933.665 1213.82Z" fill="url(#paint0_linear_5_193)"/>
<path fill-rule="evenodd" clip-rule="evenodd" d="M790.618 807.652L790.117 805.675L786.873 805.798C783.913 805.905 781.855 805.96 781.118 805.945C666.161 803.671 550.707 686.581 608.294 535.63C701.002 529.449 767.636 569.398 812.103 628.14C821.377 613.109 832.412 599.556 844.761 589.944C923.609 528.576 961.701 535.629 996.265 535.63C1042.23 652.666 979.603 776.371 849.738 801.695C854.946 820.804 795.565 826.831 790.618 807.652ZM652.029 591.354C646.351 676.518 700.349 738.551 782.078 750.71C781.456 741.019 783.118 733.498 783.118 722.029C783.118 719.052 780.743 709.667 779.755 706.276C757.809 630.932 723.098 608.952 652.029 591.354ZM954.647 591.354C850.953 620.98 839.529 707.544 839.529 723.672C839.529 732.011 837.782 743.845 838.248 751.218C882.949 739.778 962.41 699.857 954.647 591.354Z" fill="url(#paint1_linear_5_193)"/>
<path fill-rule="evenodd" clip-rule="evenodd" d="M924.062 1083.77C934.771 1087.14 944.799 1094.44 952.668 1101.41C967.936 1114.92 978.389 1131.7 978.389 1150.49C978.389 1159.49 976.169 1169.89 972.299 1179.2C968.114 1189.26 962.058 1195.78 954.309 1201.31C947.729 1206 942.152 1210.71 933.667 1213.7C877.146 1233.62 881.355 1229.53 728.036 1231.34C718.184 1231.53 708.023 1231.7 697.556 1231.85C682.052 1232.08 669.284 1218.72 669.007 1203.22C668.73 1187.71 681.614 1174.89 697.116 1174.56C743.503 1173.59 760.399 1173.72 806.786 1174.55C815.98 1174.72 920.197 1172.7 920.198 1152.45C920.198 1140.39 894.46 1133.24 884.172 1130.9C847.933 1122.69 788.754 1120.16 697.179 1120.29C681.787 1120.32 669.231 1107.96 669.003 1092.57C668.776 1077.17 681.73 1069.43 697.116 1069C773.112 1069 877.146 1069 924.062 1083.77Z" fill="url(#paint2_linear_5_193)"/>
<path fill-rule="evenodd" clip-rule="evenodd" d="M801.53 300C956.184 300.001 1116.04 423 1116.04 617.622C1116.04 721 1061.44 807 1046.03 822.274C1013.03 855.001 986.253 915.001 986.253 1003.44C986.253 1013.5 979.858 1028.42 978.214 1031.58C965.488 1056.01 943.248 1070.64 918.916 1084.56C860.5 1118 723.51 1121.04 692.033 1121.09C676.641 1121.11 664.086 1108.76 663.857 1093.37C663.63 1077.97 676.585 1063.23 691.971 1062.8C764.322 1062.8 814.879 1057.09 855.515 1047C910.02 1033.47 928.938 1012 929.521 1000.5C933.909 914.001 948.188 879.309 964.025 842.501C982.924 798.58 1059.77 747.501 1059.77 614.622C1059.77 468.5 933.522 355.282 801.53 355.282C666.496 355.282 538.166 462.505 540.269 621.315C541.482 713 587.2 763.6 613.857 798.466C624.459 812.333 634.566 834.715 641.715 852.282C649.081 870.384 654.165 888.106 655.934 894.961C660.085 911.052 665.496 918.001 669.996 923.001C673.462 926.852 679.085 930.242 681.497 931.501C685.036 933.348 696.999 936.164 704.04 936.164H792.999C813.599 936.164 832.475 923.001 824.614 894.961C817.103 868.169 800.419 849.867 789.802 808.708C774.995 750.291 779.644 680.485 811.287 629.196C820.561 614.165 831.596 600.612 843.945 591C922.793 529.632 960.885 536.686 995.449 536.686C1014.02 583.964 969 587.008 953.5 592C838 629.196 826.5 723 848.922 802.751C862.469 850.937 884.701 869.832 884.701 897.841C884.701 931.501 877.337 943.659 864.95 956.387C844.918 976.97 815.116 992.444 785.944 992.445C755.917 992.446 709.077 992.445 708.958 992.445C703.562 992.445 686.497 991.001 680.889 990.138C677.334 989.59 664.027 985.488 660.671 983.736C653.938 980.222 646.522 977.199 639.234 970.621C624.555 957.371 609.704 941.152 602.447 913.023C601.623 909.827 595.654 889.846 588.596 872.502C577.404 845.001 564.985 826.001 548.983 807.001C530.034 784.501 484 713.001 484 621.929C484 432.989 630.702 299.999 801.53 300Z" fill="#6CBD43"/>
<defs>
<linearGradient id="paint0_linear_5_193" x1="824" y1="1283.5" x2="824" y2="1176.5" gradientUnits="userSpaceOnUse">
<stop stop-color="#6CBD43"/>
<stop offset="1" stop-color="#32571F"/>
</linearGradient>
<linearGradient id="paint1_linear_5_193" x1="679" y1="743.944" x2="935" y2="743.944" gradientUnits="userSpaceOnUse">
<stop stop-color="#6CBD43"/>
<stop offset="0.5" stop-color="#0E733B"/>
<stop offset="1" stop-color="#6CBD43"/>
</linearGradient>
<linearGradient id="paint2_linear_5_193" x1="824" y1="1232" x2="824" y2="1020" gradientUnits="userSpaceOnUse">
<stop stop-color="#6CBD43"/>
<stop offset="1" stop-color="#32571F"/>
</linearGradient>
</defs>
</svg>
