<svg width="1600" height="1600" viewBox="0 0 1600 1600" fill="none" xmlns="http://www.w3.org/2000/svg">
<path fill-rule="evenodd" clip-rule="evenodd" d="M801.53 300C956.184 300.001 1116.04 423 1116.04 617.622C1116.04 721 1061.44 807 1046.03 822.274C1013.03 855.001 986.253 915.001 986.253 1003.44C986.253 1013.5 979.858 1028.42 978.214 1031.58C965.957 1055.11 944.874 1069.54 921.597 1083.02C922.435 1083.26 923.257 1083.51 924.062 1083.77C934.771 1087.14 944.799 1094.44 952.668 1101.41C967.936 1114.92 978.389 1131.7 978.389 1150.49C978.389 1159.49 976.169 1169.89 972.299 1179.2C968.114 1189.26 962.058 1195.78 954.309 1201.31C947.729 1206 942.152 1210.71 933.667 1213.7C933.63 1213.72 933.593 1213.73 933.556 1213.74C933.592 1213.77 933.629 1213.79 933.665 1213.82C949.266 1225.19 963.084 1238.8 974.67 1257.32C982.911 1270.5 979.842 1286.58 966.669 1294.82C953.907 1302.8 936.043 1300.67 927.52 1288.47L926.723 1287.26L925.164 1284.82C908.9 1260.03 885.798 1247.52 852.856 1240.12C822.072 1233.2 782.272 1230.82 728.033 1231.46C718.182 1231.65 708.02 1231.81 697.553 1231.97C682.049 1232.2 669.281 1218.84 669.004 1203.34C668.995 1202.85 668.999 1202.36 669.017 1201.88C669.481 1186.98 682.065 1174.88 697.116 1174.56C743.503 1173.59 760.398 1173.72 806.786 1174.55C815.98 1174.72 920.197 1172.7 920.198 1152.45C920.198 1140.39 894.46 1133.24 884.172 1130.9C851.852 1123.58 801.283 1120.77 725.759 1120.35C710.773 1120.93 698.896 1121.08 692.033 1121.09C676.641 1121.11 664.086 1108.76 663.857 1093.37C663.63 1077.97 676.585 1063.23 691.971 1062.8C764.322 1062.8 814.879 1057.09 855.515 1047C910.02 1033.47 928.938 1012 929.521 1000.5C933.909 914.001 948.188 879.309 964.025 842.501C982.924 798.58 1059.77 747.501 1059.77 614.622C1059.77 468.5 933.522 355.282 801.53 355.282C666.496 355.282 538.166 462.505 540.269 621.315C541.482 713 587.2 763.6 613.857 798.466C624.459 812.333 634.566 834.715 641.715 852.282C649.081 870.384 654.165 888.106 655.934 894.961C660.085 911.052 665.496 918.001 669.996 923.001C673.462 926.852 679.085 930.242 681.497 931.501C685.036 933.348 696.999 936.164 704.04 936.164H792.999C813.599 936.164 832.475 923.001 824.614 894.961C817.103 868.169 800.419 849.867 789.802 808.708C789.55 807.714 789.303 806.716 789.062 805.715L786.873 805.799C783.914 805.905 781.856 805.96 781.118 805.945C666.162 803.672 550.708 686.581 608.294 535.63C700.942 529.454 767.549 569.346 812.016 628.025C815.364 622.679 818.937 617.531 822.712 612.691C829.441 603.918 836.83 596.118 844.762 589.944C923.609 528.576 961.701 535.63 996.266 535.63C1042.23 652.666 979.603 776.372 849.738 801.695C850.143 803.181 850.157 804.587 849.837 805.908C863.445 851.777 884.701 870.452 884.701 897.841C884.701 931.501 877.337 943.659 864.95 956.387C844.918 976.97 815.116 992.444 785.944 992.445C755.917 992.446 709.077 992.445 708.958 992.445C703.562 992.445 686.497 991.001 680.889 990.138C677.334 989.59 664.027 985.488 660.671 983.736C653.938 980.222 646.522 977.199 639.234 970.621C624.555 957.371 609.704 941.152 602.447 913.023C601.623 909.827 595.654 889.846 588.596 872.502C577.404 845.001 564.985 826.001 548.983 807.001C530.034 784.501 484 713.001 484 621.929C484 432.989 630.702 299.999 801.53 300ZM954.667 591.645C954.262 591.763 953.872 591.88 953.5 592C862.497 621.307 836.058 685.755 839.902 750.783C884.838 738.799 962.175 698.602 954.667 591.645ZM652.029 591.354C646.357 676.431 700.239 738.422 781.826 750.671C781.541 740.236 781.861 729.749 782.823 719.347C782.158 715.297 780.531 708.939 779.756 706.276C757.81 630.933 723.098 608.952 652.029 591.354Z" fill="black"/>
</svg>
