<svg width="100" height="100" viewBox="0 0 100 100" fill="none" xmlns="http://www.w3.org/2000/svg">
<path d="M18.5001 70.5C14.5 68 12.3905 61 11.125 59.4275C10.148 58.2135 8.51818 58.0784 7.00727 58.9314C6 59.5 5.70827 61 6.09641 62.3307C8.45053 70.4019 14.1501 80.3036 19.0499 83.1079C23.9442 85.909 26.6116 85.8113 30.9477 86.2959C32.4317 86.4617 32.0978 88.6994 33.5324 89.1138C37.0762 90.1374 39.2314 89.1138 41 88.5C44.1811 87.3961 45.6242 85.1026 44.6671 82.6851C44 81 39.3788 74.355 37.6313 73.8166C29.7704 71.3947 19.3296 68.841 18.5001 70.5ZM18.5001 70.5C17.8676 71.7649 17.7621 72.526 18.135 74.0578C18.4872 75.5044 19.2194 76.0861 20.7198 76.8757C24.066 78.6366 30.1439 79.0973 30.1439 79.0973" stroke="black" stroke-width="3" stroke-linecap="round" stroke-linejoin="round"/>
<path d="M81.5273 70.5C85.5273 68 87.6369 61 88.9024 59.4275C89.8793 58.2135 91.5092 58.0784 93.0201 58.9314C94.0273 59.5 94.3191 61 93.9309 62.3307C91.5768 70.4019 85.8772 80.3036 80.9774 83.1079C76.0831 85.909 73.4158 85.8113 69.0797 86.2959C67.5956 86.4617 67.9296 88.6994 66.4949 89.1138C62.9511 90.1374 60.7959 89.1138 59.0273 88.5C55.8462 87.3961 54.4032 85.1026 55.3602 82.6851C56.0273 81 60.6485 74.355 62.3961 73.8166C70.2569 71.3947 80.6978 68.841 81.5273 70.5ZM81.5273 70.5C82.1597 71.7649 82.2653 72.526 81.8923 74.0578C81.5401 75.5044 80.808 76.0861 79.3076 76.8757C75.9614 78.6366 69.8834 79.0973 69.8834 79.0973" stroke="black" stroke-width="3" stroke-linecap="round" stroke-linejoin="round"/>
<path d="M22.8806 22.6314C25.0379 22.6315 27.321 24.9551 27.321 28.5572C27.3209 32.1591 25.0378 34.4819 22.8806 34.482C20.7234 34.482 18.4403 32.1592 18.4402 28.5572C18.4402 24.955 20.7233 22.6314 22.8806 22.6314Z" stroke="black" stroke-width="3"/>
<path d="M22.8809 35.027C28.3188 35.0272 33.2616 40.6747 33.2617 48.3776C33.2617 50.2745 32.9528 51.6126 32.4824 52.5671C32.0236 53.498 31.3757 54.1373 30.5498 54.5993C28.7887 55.5842 26.2064 55.7888 22.8809 55.7888C19.5553 55.7888 16.973 55.5842 15.2119 54.5993C14.3859 54.1373 13.7382 53.4981 13.2793 52.5671C12.8089 51.6126 12.5 50.2746 12.5 48.3776C12.5001 40.6746 17.4429 35.027 22.8809 35.027Z" stroke="black" stroke-width="3"/>
<path d="M67.1195 5C68.1722 5.00009 69.5599 6.20443 69.5599 8.42578C69.5598 10.6469 68.1721 11.8505 67.1195 11.8506C66.0669 11.8506 64.6792 10.647 64.6791 8.42578C64.6791 6.20435 66.0668 5 67.1195 5Z" stroke="black" stroke-width="3"/>
<path d="M67.1196 12.7388C70.3484 12.7389 73.5004 16.1479 73.5005 21.0894C73.5005 22.2958 73.3036 23.1013 73.0356 23.645C72.7791 24.1654 72.4236 24.5163 71.9595 24.7759C70.9223 25.3559 69.3404 25.5005 67.1196 25.5005C64.8986 25.5005 63.3161 25.356 62.2788 24.7759C61.8148 24.5163 61.4601 24.1654 61.2036 23.645C60.9356 23.1013 60.7388 22.296 60.7388 21.0894C60.7388 16.1478 63.8908 12.7388 67.1196 12.7388Z" stroke="black" stroke-width="3"/>
<path d="M78.1484 28.5C79.8274 28.5 81.7226 30.3385 81.7227 33.3428C81.7227 36.3471 79.8274 38.1855 78.1484 38.1855C76.4695 38.1855 74.5742 36.347 74.5742 33.3428C74.5743 30.3386 76.4695 28.5001 78.1484 28.5Z" stroke="black" stroke-width="3"/>
<path d="M78.1484 39.0714C82.6298 39.0714 86.7968 43.7497 86.7969 50.257C86.7969 51.855 86.537 52.9628 86.1543 53.7394C85.7831 54.4925 85.262 55.0067 84.5928 55.381C83.1451 56.1906 80.9957 56.3683 78.1484 56.3683C75.3015 56.3683 73.1527 56.1904 71.7051 55.381C71.0358 55.0067 70.5138 54.4926 70.1426 53.7394C69.7598 52.9628 69.5 51.855 69.5 50.257C69.5001 43.7498 73.6671 39.0715 78.1484 39.0714Z" stroke="black" stroke-width="3"/>
<path d="M51.416 20.5C52.9366 20.5 54.4175 21.3023 55.5664 22.8047C56.7163 24.3084 57.4707 26.451 57.4707 28.8789C57.4707 31.3067 56.7162 33.4493 55.5664 34.9531C54.4175 36.4555 52.9366 37.2578 51.416 37.2578C49.8954 37.2578 48.4145 36.4555 47.2656 34.9531C46.1158 33.4493 45.3613 31.3068 45.3613 28.8789C45.3614 26.451 46.1157 24.3084 47.2656 22.8047C48.4145 21.3023 49.8954 20.5 51.416 20.5Z" stroke="black" stroke-width="3"/>
<path d="M51.416 37.9338C58.9581 37.9338 65.6064 45.7139 65.6064 56.0471C65.6064 58.6014 65.1905 60.4466 64.5273 61.7922C63.8757 63.1143 62.949 64.0291 61.7783 64.6838C59.3278 66.0541 55.7934 66.3146 51.416 66.3146C47.0387 66.3146 43.5042 66.054 41.0537 64.6838C39.8829 64.029 38.9554 63.1145 38.3037 61.7922C37.6406 60.4466 37.2256 58.6014 37.2256 56.0471C37.2256 45.7139 43.8739 37.9338 51.416 37.9338Z" stroke="black" stroke-width="3"/>
<path d="M94.744 36.1921C91.9728 27.6226 86.7726 20.0424 79.7751 14.3722" stroke="black" stroke-width="3" stroke-linecap="round"/>
<path d="M50.5 4C39.4303 4 28.7237 7.94906 20.3053 15.1371C11.8869 22.3252 6.30899 32.2807 4.57442 43.2136" stroke="black" stroke-width="3" stroke-linecap="round"/>
</svg>
